<?xml version="1.0" standalone="no"?>
<!DOCTYPE svg PUBLIC "-//W3C//DTD SVG 20010904//EN"
 "http://www.w3.org/TR/2001/REC-SVG-20010904/DTD/svg10.dtd">
<svg version="1.0" xmlns="http://www.w3.org/2000/svg"
 width="1200.000000pt" height="1200.000000pt" viewBox="0 0 1200.000000 1200.000000"
 preserveAspectRatio="xMidYMid meet">

<g transform="translate(0.000000,1200.000000) scale(0.100000,-0.100000)"
fill="#000000" stroke="none">
<path d="M5625 10099 c-1560 -137 -2765 -1452 -2765 -3019 0 -702 239 -1366
693 -1930 89 -110 316 -333 441 -432 1115 -889 2683 -890 3790 -2 1073 861
1432 2333 876 3589 -268 605 -721 1101 -1305 1427 -511 286 -1136 418 -1730
367z m500 -179 c761 -62 1454 -422 1950 -1012 590 -704 803 -1643 575 -2538
-128 -503 -386 -949 -767 -1325 l-106 -105 -787 0 -787 0 -16 59 c-48 174 -61
418 -31 583 13 70 14 98 5 133 -6 24 -11 110 -11 192 l0 148 37 60 c20 33 39
62 42 65 4 3 18 21 32 40 70 94 211 207 354 282 87 46 125 51 265 33 68 -8
130 -15 136 -15 6 0 46 -27 87 -60 42 -33 80 -60 84 -60 5 -1 21 -11 37 -24
l29 -24 -32 -63 c-45 -90 -39 -114 21 -85 17 9 33 16 35 16 1 0 3 -17 3 -39 0
-39 20 -68 40 -56 6 4 16 20 23 37 12 29 14 30 29 14 37 -36 60 -14 51 50 -3
25 1 46 9 58 14 17 16 17 49 -15 23 -23 34 -43 34 -63 0 -37 27 -56 55 -38 29
18 32 16 24 -23 -11 -62 45 -93 68 -37 17 38 17 38 34 14 33 -48 92 -6 60 43
-21 32 -20 35 7 35 43 0 63 44 31 70 -8 7 -14 23 -12 35 1 12 -4 34 -11 49
-23 42 -2 44 31 4 32 -41 80 -52 92 -23 4 11 17 15 41 13 44 -3 61 12 46 41
-13 23 -11 24 37 21 21 -1 34 4 38 14 3 8 19 19 35 25 34 12 37 31 9 56 -15
13 -30 16 -65 13 -53 -6 -64 3 -35 32 24 24 16 47 -23 73 -18 12 -23 23 -22
53 1 22 6 48 12 59 6 11 14 35 18 53 3 17 8 32 10 32 3 0 22 -19 43 -42 l39
-42 37 18 c43 20 47 49 14 91 -25 32 -15 59 23 61 44 2 47 4 52 31 7 39 -8 71
-40 85 -16 7 -30 13 -32 15 -2 1 11 16 28 33 40 41 43 92 6 116 -14 9 -34 14
-44 11 -32 -8 -64 21 -56 50 10 41 -18 73 -65 73 -21 0 -41 3 -43 8 -2 4 -2
26 1 49 3 34 9 43 33 53 33 14 36 28 13 76 -21 44 -13 52 30 29 29 -16 37 -17
50 -6 9 8 16 24 16 36 0 14 7 25 20 28 38 10 15 97 -27 97 -21 0 -15 28 7 35
25 8 37 50 20 70 -7 8 -27 15 -46 15 -39 0 -49 12 -34 41 20 36 5 67 -35 75
-19 3 -38 10 -41 15 -9 15 -27 10 -21 -5 3 -8 -3 -26 -14 -39 -26 -34 -25 -51
1 -37 41 22 76 -2 71 -47 -1 -6 8 -14 19 -18 35 -11 22 -49 -17 -53 -24 -2
-33 -9 -35 -25 -4 -30 -44 -36 -53 -7 -5 15 -12 19 -25 15 -18 -6 -70 35 -70
56 0 5 -7 12 -15 15 -23 9 -18 33 10 44 26 10 32 29 15 46 -5 5 -6 15 0 23 7
12 12 12 34 -2 33 -22 34 -22 28 10 -3 18 1 30 12 39 24 17 16 48 -12 52 -12
2 -27 12 -32 23 -16 28 -58 25 -72 -6 -15 -33 -34 -32 -50 3 -14 28 -42 34
-80 17 -14 -5 -18 -2 -18 14 0 25 -33 44 -61 36 -18 -6 -20 -3 -17 27 3 31 5
33 38 30 21 -2 39 3 45 11 10 14 67 37 91 37 7 0 14 -10 16 -21 2 -12 11 -27
21 -33 15 -9 22 -6 41 17 12 15 29 27 39 27 25 0 33 45 13 75 -19 29 -14 45
15 45 29 0 22 51 -9 66 -34 17 -35 20 -18 52 14 28 14 32 0 46 -8 9 -23 16
-32 16 -25 0 -62 28 -62 46 0 23 -26 44 -53 44 -16 0 -33 10 -46 28 -18 24
-22 26 -41 14 -12 -7 -23 -12 -25 -10 -1 2 -8 13 -14 26 -18 35 -57 29 -82
-12 -23 -39 -50 -50 -76 -30 -10 7 -28 14 -40 14 -27 0 -28 10 -8 50 18 35 11
77 -15 85 -11 3 -20 17 -22 33 -2 23 -9 28 -37 30 -31 3 -33 6 -28 31 7 31 -7
51 -36 51 -23 0 -56 38 -57 65 -1 29 -59 68 -78 52 -11 -9 -18 -7 -32 11 -24
29 -48 28 -61 -2 -10 -22 -17 -24 -60 -21 -27 2 -51 0 -54 -5 -3 -5 -13 -6
-22 -3 -9 4 -21 -1 -30 -12 -12 -18 -15 -18 -29 -3 -14 14 -14 21 -3 51 15 44
1 67 -41 67 -21 0 -29 6 -34 25 -5 19 -13 25 -34 25 -15 0 -34 -4 -42 -10 -18
-11 -38 4 -51 38 -9 24 -12 24 -74 18 -36 -4 -65 -4 -65 0 0 4 9 22 21 41 20
32 20 35 4 59 -15 23 -22 26 -56 20 l-39 -6 6 40 c5 31 3 45 -11 60 -20 22
-74 27 -92 9 -14 -14 -33 -3 -33 20 0 42 -56 55 -90 21 -16 -16 -25 -18 -39
-11 -13 7 -24 6 -40 -5 -28 -20 -55 -11 -48 16 9 33 -15 54 -54 46 -30 -5 -36
-3 -51 24 -19 33 -52 40 -62 14 -5 -12 -14 -15 -40 -10 -44 8 -63 0 -70 -30
-9 -35 -47 -29 -57 9 -10 39 -27 57 -54 57 -25 0 -41 -15 -47 -45 -2 -13 -10
-19 -22 -17 -24 4 -46 -16 -46 -44 0 -27 -17 -41 -33 -25 -22 22 -47 13 -47
-17 0 -39 -8 -44 -42 -26 -50 26 -108 -5 -78 -41 14 -17 3 -59 -21 -81 -18
-16 -20 -16 -37 -1 -26 23 -58 22 -65 -3 -4 -14 -14 -20 -35 -20 -26 0 -31 -4
-34 -26 -2 -21 -13 -30 -51 -45 l-47 -19 -12 25 c-6 13 -19 27 -30 31 -27 8
-78 -5 -102 -27 -25 -24 -20 -24 32 1 22 11 48 20 57 20 21 0 19 -23 -4 -44
-15 -13 -18 -26 -14 -52 4 -27 2 -34 -10 -34 -9 0 -24 -11 -33 -25 -20 -30
-34 -32 -41 -5 -7 26 -33 26 -40 0 -3 -11 -17 -23 -32 -26 -14 -4 -41 -20 -58
-37 -18 -17 -36 -28 -39 -24 -8 8 23 57 36 57 23 0 8 27 -22 42 l-33 16 29 11
c23 9 26 14 16 26 -7 8 -22 15 -34 16 -21 0 -21 0 1 9 13 5 26 22 31 42 10 41
39 49 63 17 l18 -24 24 23 c15 14 30 20 40 16 10 -3 17 -1 17 5 0 14 -33 14
-47 0 -8 -8 -21 -7 -47 2 -43 15 -69 5 -74 -30 -2 -13 -18 -29 -42 -41 -29
-15 -37 -24 -33 -39 3 -12 -3 -24 -16 -33 -12 -8 -24 -29 -27 -46 -6 -31 -26
-42 -39 -22 -17 27 -75 -6 -75 -44 0 -11 -12 -33 -27 -49 l-28 -29 23 -15 c12
-9 22 -21 22 -29 0 -22 18 -26 49 -9 17 8 35 15 41 15 16 0 12 -27 -5 -34 -10
-3 -15 -15 -13 -32 4 -33 -45 -75 -64 -56 -18 18 -46 14 -53 -7 -3 -10 -19
-21 -35 -25 -23 -4 -30 -11 -30 -29 0 -13 5 -28 10 -33 18 -18 -14 -38 -39
-24 -18 9 -23 6 -40 -21 l-19 -31 -16 31 c-23 44 -52 57 -66 30 -7 -12 -17
-18 -26 -15 -18 7 -84 -43 -84 -63 0 -7 14 1 30 19 37 40 60 34 60 -14 0 -37
17 -57 30 -36 4 7 10 8 13 3 3 -5 -5 -17 -19 -27 -29 -23 -30 -37 -5 -60 28
-25 16 -46 -25 -46 -27 0 -37 -5 -46 -25 -14 -30 -33 -32 -48 -5 -14 26 -35
25 -54 -2 -14 -19 -16 -19 -22 -5 -8 22 -28 22 -49 0 -9 -9 -20 -12 -23 -7 -4
5 -18 9 -31 10 -23 1 -23 0 -5 -13 15 -11 19 -27 19 -71 0 -56 1 -57 27 -55
22 1 27 -3 30 -25 4 -37 50 -43 84 -11 23 22 24 22 44 4 18 -16 23 -17 45 -5
23 12 28 12 48 -9 21 -22 21 -23 2 -21 -43 5 -47 1 -43 -37 3 -33 0 -38 -17
-37 -11 1 -28 5 -37 8 -12 6 -21 -1 -33 -24 -14 -28 -20 -31 -46 -25 -18 4
-36 2 -44 -5 -11 -9 -21 -8 -48 9 -31 19 -34 19 -50 4 -9 -10 -29 -17 -44 -18
-20 0 -29 -6 -33 -25 -4 -17 -13 -24 -25 -23 -31 3 -75 -29 -75 -53 0 -26 25
-50 35 -34 4 7 28 10 64 6 50 -4 58 -2 66 16 8 16 20 21 57 22 26 1 49 -2 51
-8 4 -11 -41 -61 -63 -70 -8 -3 0 -4 18 -1 37 5 40 -6 18 -60 -16 -37 -25 -42
-43 -24 -16 16 -53 1 -53 -21 0 -29 -19 -34 -44 -11 -12 12 -34 21 -49 21 -15
0 -27 5 -27 10 0 6 -26 10 -57 10 l-58 0 25 -20 25 -19 -27 -26 c-40 -37 -35
-101 8 -93 15 2 20 -4 22 -29 3 -28 6 -31 45 -36 26 -2 51 1 65 10 19 12 22
11 22 -2 0 -8 -4 -15 -10 -15 -5 0 -16 -13 -25 -30 -20 -38 -3 -80 32 -80 27
0 29 -12 7 -45 -13 -20 -14 -28 -4 -40 7 -8 20 -15 29 -15 18 0 41 -18 41 -32
0 -15 -37 -8 -60 12 -30 26 -36 25 -56 -5 -9 -14 -22 -25 -29 -25 -7 0 -23 -9
-36 -19 -21 -17 -22 -22 -11 -40 19 -33 14 -41 -26 -41 -81 0 -113 -91 -37
-106 19 -3 35 -9 35 -13 0 -16 -42 -72 -58 -78 -30 -11 -52 -35 -52 -58 0 -30
24 -48 52 -40 63 18 60 18 49 -3 -29 -53 -30 -70 -10 -93 10 -12 19 -30 19
-40 0 -24 41 -35 69 -19 12 6 24 24 28 41 6 32 30 39 39 12 3 -10 9 -25 14
-34 5 -9 8 -37 8 -62 0 -39 -3 -47 -21 -53 -54 -16 -74 -63 -37 -86 11 -7 20
-18 20 -24 0 -15 -26 -25 -44 -18 -23 9 -75 -24 -82 -51 -10 -40 2 -58 34 -52
15 3 35 0 45 -8 10 -7 26 -11 37 -8 16 4 18 0 13 -36 -5 -36 -3 -42 18 -49 13
-5 36 -5 55 1 26 8 36 7 49 -7 18 -18 21 -18 53 -10 12 4 22 14 22 23 0 26 25
57 34 42 4 -6 -2 -23 -13 -37 -24 -30 -27 -60 -8 -67 9 -3 9 -9 -2 -29 -16
-32 -8 -48 26 -48 20 0 24 -3 17 -17 -14 -32 -10 -75 8 -86 13 -9 22 -7 40 10
l23 22 20 -29 c24 -36 52 -38 66 -6 9 18 8 33 0 57 -14 40 -8 46 23 25 14 -9
32 -16 40 -16 19 0 28 27 16 50 -16 30 15 60 62 60 31 0 38 -4 38 -19 0 -11 5
-23 11 -26 6 -4 8 -22 4 -44 -5 -28 -2 -41 10 -51 15 -12 19 -11 36 10 l18 25
16 -22 c30 -43 84 -18 71 32 -6 25 -5 26 27 20 25 -5 37 -2 47 10 13 15 11 20
-13 40 l-28 22 23 15 c20 13 21 17 9 32 -7 9 -22 16 -32 16 -33 0 -21 18 49
76 141 117 226 158 360 170 56 5 89 2 159 -16 111 -28 132 -39 179 -94 22 -24
71 -70 109 -102 70 -59 80 -69 143 -138 117 -129 124 -207 56 -631 -33 -211
-37 -230 -86 -437 l-42 -178 -754 0 -754 0 -67 61 c-590 546 -925 1353 -898
2164 20 601 211 1149 563 1618 596 793 1534 1217 2519 1137z m-331 -516 c32
-16 36 -16 51 0 20 19 20 19 53 3 15 -8 41 -20 57 -28 21 -10 31 -23 33 -42 3
-21 9 -27 28 -27 26 0 31 9 13 27 -19 19 1 33 44 31 35 -3 44 -8 54 -30 7 -16
17 -28 23 -28 16 0 12 -27 -6 -34 -9 -4 -25 -4 -34 -1 -14 5 -19 -3 -24 -39
-6 -37 -11 -45 -34 -49 -29 -6 -52 7 -52 29 0 8 -7 14 -15 14 -8 0 -18 0 -22
0 -5 0 -9 -8 -10 -17 -5 -46 -20 -78 -39 -79 -10 -1 -26 -5 -35 -8 -19 -8 -36
10 -41 44 -2 17 -10 26 -26 28 -21 3 -23 0 -20 -30 3 -35 -6 -39 -57 -24 -12
4 -29 -2 -43 -14 -20 -16 -21 -22 -12 -40 9 -17 8 -25 -4 -39 -9 -10 -16 -23
-16 -29 0 -17 -75 -15 -90 2 -9 12 -7 18 9 33 26 22 27 39 1 46 -26 7 -26 37
0 37 11 0 29 -5 39 -12 25 -16 55 -3 46 20 -5 9 -9 28 -10 41 -1 15 -10 28
-23 32 -25 10 -29 27 -7 35 27 11 16 24 -20 24 -28 0 -35 4 -35 19 0 30 37 37
64 12 20 -19 23 -19 38 -5 14 14 18 14 46 0 17 -9 41 -16 52 -16 15 0 25 -10
33 -30 14 -37 27 -38 59 -1 30 33 22 51 -25 51 -23 0 -28 4 -25 22 2 18 -3 23
-30 29 -45 9 -59 24 -42 44 15 18 12 18 54 -1z m403 -221 c9 -16 28 -37 42
-49 24 -21 24 -21 5 -47 -23 -32 -45 -34 -69 -7 -10 11 -23 17 -29 13 -6 -4
-23 -6 -38 -5 -19 2 -28 -2 -28 -13 0 -10 10 -15 30 -15 22 0 30 -5 30 -18 0
-10 4 -22 9 -27 5 -6 11 -23 13 -40 3 -26 -1 -30 -24 -33 -18 -2 -30 3 -37 17
-21 38 -42 53 -57 40 -8 -6 -14 -18 -14 -25 0 -8 -9 -14 -20 -14 -25 0 -27 35
-5 60 14 16 13 20 -15 47 -28 27 -29 30 -14 51 16 23 77 31 89 12 14 -22 35
-8 45 29 10 36 21 46 57 50 7 0 20 -11 30 -26z m-325 -108 c27 -23 27 -24 11
-54 -13 -22 -27 -31 -53 -34 -45 -6 -55 5 -52 51 5 63 47 79 94 37z m488 15
c0 -5 -4 -10 -10 -10 -5 0 -10 5 -10 10 0 6 5 10 10 10 6 0 10 -4 10 -10z
m-77 -44 c26 -20 20 -76 -9 -76 -21 0 -47 46 -39 70 7 23 22 25 48 6z m765
-86 c6 0 12 -7 12 -15 0 -8 4 -15 9 -15 5 0 21 -4 35 -10 27 -10 27 -40 -1
-40 -10 0 -13 -9 -11 -27 4 -34 33 -43 41 -13 10 39 66 20 91 -31 20 -40 20
-42 -3 -34 -11 3 -47 1 -82 -4 -49 -8 -66 -8 -78 3 -9 7 -24 16 -33 19 -10 4
-18 11 -18 17 0 7 -6 8 -19 0 -31 -16 -35 -13 -49 33 -8 23 -21 50 -29 59 -22
25 -1 48 43 48 19 0 34 5 34 11 0 7 9 9 23 5 12 -3 28 -6 35 -6z m-648 -91 c8
-2 19 -13 25 -24 8 -16 19 -19 53 -16 26 1 58 -4 78 -14 27 -13 38 -14 49 -5
19 16 65 -15 65 -44 0 -42 -10 -46 -137 -45 l-63 0 10 -26 c13 -34 13 -35 -4
-29 -8 3 -17 1 -21 -5 -9 -16 -31 -13 -50 5 -13 14 -20 14 -45 4 -25 -10 -34
-10 -55 4 -14 9 -25 20 -25 25 0 17 36 40 75 46 57 11 60 15 33 39 -14 12 -28
38 -32 60 -7 34 -5 38 11 34 10 -3 25 -7 33 -9z m-1670 -74 c24 -26 64 -33 75
-14 4 6 14 7 24 3 9 -4 28 -6 44 -5 29 1 34 -8 15 -27 -10 -10 -10 -17 0 -33
13 -21 7 -43 -9 -34 -5 4 -24 1 -43 -6 -23 -8 -32 -17 -29 -28 5 -20 -50 -63
-71 -55 -8 3 -17 12 -20 20 -3 8 -9 14 -14 14 -9 0 -36 -47 -37 -65 -1 -22
-18 -35 -44 -35 -16 0 -34 -7 -41 -15 -11 -14 -15 -14 -32 2 -18 16 -20 16
-48 0 -18 -11 -31 -14 -35 -7 -3 5 5 14 19 20 26 10 30 17 27 57 -2 15 5 23
21 27 54 15 104 29 116 32 22 6 4 23 -18 17 -12 -3 -20 0 -20 8 0 21 32 49 56
49 31 0 21 28 -12 36 -31 8 -30 18 4 43 35 26 44 26 72 -4z m1082 -132 c26
-23 54 -26 82 -7 19 12 25 12 28 2 7 -21 -3 -48 -18 -48 -8 0 -19 -11 -24 -24
-14 -39 -55 -43 -133 -14 -25 10 -27 14 -21 42 6 29 38 65 58 66 5 0 18 -8 28
-17z m1916 -101 c7 -5 10 -16 6 -25 -4 -10 0 -19 9 -23 8 -3 27 -24 42 -46 22
-32 24 -42 13 -49 -17 -11 -25 -11 -50 2 -15 8 -27 8 -45 -2 -19 -10 -28 -10
-43 -1 -11 7 -34 12 -52 12 -25 0 -29 3 -20 12 17 17 15 45 -5 56 -23 13 -9
45 16 37 12 -3 23 0 28 8 13 23 76 34 101 19z m-538 -6 c0 -3 -4 -8 -10 -11
-5 -3 -10 -1 -10 4 0 6 5 11 10 11 6 0 10 -2 10 -4z m-970 -22 c0 -9 7 -22 14
-28 18 -13 8 -77 -12 -84 -19 -6 -26 27 -12 54 12 21 11 26 -5 38 -10 7 -15
18 -11 24 11 17 26 15 26 -4z m114 -2 c7 -12 -38 -102 -49 -99 -15 5 -18 76
-4 93 12 15 45 19 53 6z m-1018 -33 c3 -6 2 -15 -3 -20 -13 -13 -43 -1 -43 17
0 16 36 19 46 3z m127 -19 c18 -22 22 -40 9 -40 -15 0 -72 31 -72 39 0 27 40
28 63 1z m1825 -12 c10 -10 17 -10 33 1 15 9 24 10 32 2 6 -6 19 -11 29 -11
13 0 18 -8 18 -25 0 -18 7 -28 24 -35 14 -5 30 -18 36 -30 6 -11 21 -20 33
-20 24 0 82 -64 72 -80 -10 -16 -41 -11 -60 10 -22 24 -48 25 -85 4 -27 -17
-28 -16 -65 20 -26 26 -42 35 -56 31 -11 -4 -19 -2 -19 4 0 21 -18 11 -24 -13
-5 -22 -33 -42 -43 -32 -3 3 2 15 10 27 9 11 13 27 11 34 -3 6 2 17 10 24 14
11 13 16 -1 37 -14 23 -14 26 2 44 21 23 27 24 43 8z m-1658 -24 c30 -26 70
-91 70 -116 0 -6 -12 7 -27 30 -15 23 -42 49 -60 57 -21 10 -33 23 -33 35 0
27 12 25 50 -6z m-282 -21 c2 -13 -4 -22 -16 -25 -15 -4 -17 0 -14 24 5 32 25
33 30 1z m795 -22 c9 -16 17 -35 17 -41 0 -18 -28 7 -46 42 -20 39 5 39 29 -1z
m-86 -44 c34 -49 37 -77 8 -77 -8 0 -20 -11 -25 -24 -7 -18 -14 -23 -30 -19
-25 7 -53 -15 -45 -35 3 -8 -6 -25 -20 -38 -41 -38 -8 -74 66 -74 27 0 30 -3
27 -27 -2 -18 -8 -27 -18 -25 -11 2 -9 -2 4 -13 15 -12 17 -17 7 -29 -11 -14
-16 -13 -38 1 -23 16 -26 16 -35 0 -12 -22 -27 -21 -58 3 -31 24 -52 25 -48 3
2 -14 -5 -19 -27 -20 -16 -2 -47 -5 -67 -9 -37 -6 -38 -6 -40 27 0 19 0 43 1
55 0 11 -10 31 -24 44 -31 29 -31 38 -2 42 17 2 23 11 27 37 3 19 10 36 16 38
12 4 34 -68 34 -109 0 -21 4 -23 47 -21 59 2 55 1 72 12 12 8 13 12 1 25 -11
14 -10 32 5 109 21 112 26 121 62 122 23 0 29 5 31 28 5 41 29 31 69 -26z
m-262 9 c8 -18 21 -36 30 -40 13 -4 15 -19 13 -68 -2 -35 -7 -63 -11 -63 -5 0
-21 34 -37 75 -16 41 -34 83 -40 92 -15 27 -12 38 11 38 13 0 25 -11 34 -34z
m305 2 c10 -18 17 -34 15 -37 -8 -7 -65 51 -59 61 10 16 24 8 44 -24z m786 16
c-3 -9 -6 -24 -6 -35 0 -21 -20 -25 -38 -7 -9 9 -7 17 10 35 25 26 43 30 34 7z
m-1686 -24 c6 -11 18 -20 26 -20 11 0 14 -8 10 -32 -6 -45 -7 -46 -15 -20 l-6
24 -40 -32 c-43 -34 -62 -24 -25 15 l22 23 -23 12 -22 12 24 19 c31 24 36 23
49 -1z m137 -5 c15 -13 24 -28 20 -31 -4 -4 -13 1 -20 11 -12 16 -15 16 -28 3
-11 -12 -19 -13 -37 -5 -27 13 -23 32 7 31 11 0 21 3 21 8 0 13 9 9 37 -17z
m1215 -17 c33 -16 35 -40 7 -79 -18 -25 -18 -29 -4 -29 9 0 25 10 35 22 15 20
22 21 56 13 35 -9 39 -13 39 -40 0 -28 -2 -30 -33 -27 -30 2 -32 0 -22 -18 6
-11 15 -20 20 -20 14 0 23 -61 11 -73 -8 -8 -19 -5 -42 12 -28 21 -34 22 -56
10 -20 -11 -26 -11 -33 1 -6 10 -3 21 8 33 14 16 14 19 2 27 -8 6 -25 10 -37
10 -12 0 -25 5 -28 10 -3 6 -16 10 -28 10 -12 0 -32 8 -45 18 -20 15 -22 22
-13 44 12 33 39 48 77 45 19 -1 29 3 30 13 4 47 0 46 56 18z m-1524 -5 c2 -8
-6 -13 -21 -13 -13 0 -30 -7 -37 -15 -13 -15 -50 -21 -50 -7 0 7 32 31 60 44
21 10 43 5 48 -9z m-216 -103 c18 -11 41 -20 52 -20 14 0 17 -5 13 -22 -3 -12
-2 -30 4 -40 8 -14 4 -23 -18 -43 -15 -13 -34 -25 -41 -25 -21 0 -25 27 -7 53
16 25 15 26 -7 38 -13 7 -39 13 -58 13 -44 1 -51 25 -13 48 37 21 37 21 75 -2z
m-391 -84 c-1 -3 -1 -10 -1 -16 0 -5 -6 -7 -14 -4 -8 3 -30 6 -48 7 -41 2 -52
32 -16 46 17 7 31 4 51 -9 16 -9 28 -20 28 -24z m1244 -42 l39 -35 -29 -24
c-44 -36 -79 -41 -114 -16 -16 11 -32 32 -35 46 -7 28 0 49 14 40 4 -3 13 2
20 10 21 25 62 17 105 -21z m1320 -15 c10 -18 20 -26 30 -23 8 4 15 1 15 -6 0
-25 -109 -162 -122 -154 -4 3 -8 31 -8 62 0 64 -14 122 -31 133 -23 14 1 24
50 21 45 -4 53 -8 66 -33z m-1561 -9 c39 -27 41 -31 51 -102 4 -29 2 -48 -3
-48 -6 0 -24 21 -40 48 -17 26 -47 63 -68 82 l-36 35 16 -30 c9 -16 30 -49 48
-72 36 -49 34 -63 -5 -33 -32 25 -101 126 -94 137 11 18 95 7 131 -17z m-308
-31 l28 -30 -29 -24 c-17 -13 -38 -24 -47 -25 -10 0 -18 -5 -18 -11 0 -6 -10
-19 -21 -28 l-21 -17 26 -17 c32 -21 33 -37 3 -37 -13 0 -28 -5 -35 -12 -15
-15 -42 7 -42 34 0 31 -25 15 -28 -18 -2 -16 -11 -35 -20 -42 -16 -12 -16 -15
0 -43 20 -34 24 -32 -43 -13 -12 3 -32 0 -45 -7 -36 -19 -53 2 -25 30 25 25
25 25 -29 6 -23 -8 -46 -15 -51 -15 -16 0 -9 29 9 39 14 8 15 13 4 31 -16 26
-7 43 19 35 31 -10 57 4 68 35 11 34 35 39 63 13 17 -15 20 -15 28 -3 14 22
12 28 -10 40 -28 15 -25 33 10 58 36 27 38 27 59 1 l18 -22 23 34 c13 19 28
37 33 40 16 11 44 -2 73 -32z m-516 14 c0 -17 -18 -36 -44 -46 -18 -7 -18 -8
3 -31 l21 -23 -40 -16 c-38 -15 -41 -14 -54 4 -12 17 -15 18 -26 4 -15 -18
-41 -20 -58 -3 -8 8 -15 9 -22 2 -7 -7 -1 -21 20 -42 16 -18 30 -36 30 -41 0
-4 -19 -11 -42 -14 -31 -5 -46 -2 -54 8 -13 17 -40 20 -49 5 -3 -5 -15 -10
-26 -10 -22 0 -26 29 -6 49 10 10 8 16 -10 28 -13 9 -23 23 -23 33 0 22 73 34
102 17 15 -10 21 -9 28 3 5 8 10 23 10 32 0 30 22 32 46 5 28 -32 55 -36 47
-7 -4 14 2 22 21 30 14 5 26 14 26 19 0 6 23 10 50 9 37 0 50 -4 50 -15z
m2524 -29 c32 -12 12 -42 -39 -60 -25 -8 -30 -15 -29 -42 2 -26 -3 -33 -22
-38 -13 -3 -26 -15 -29 -25 -4 -10 -11 -19 -16 -19 -6 0 -9 -12 -7 -27 2 -22
9 -29 31 -31 15 -2 27 -6 27 -10 0 -14 -89 -83 -138 -107 -52 -25 -87 -32 -80
-17 33 72 104 198 155 274 50 76 70 98 91 101 15 2 30 5 34 6 3 0 13 -2 22 -5z
m369 -43 c3 -12 17 -21 41 -25 38 -7 50 -24 63 -91 4 -16 15 -38 25 -49 36
-40 18 -47 -77 -32 -61 11 -70 15 -73 35 -3 18 -8 22 -27 17 -26 -7 -48 14
-40 36 4 9 -4 22 -19 32 -36 23 -33 30 18 44 30 8 45 18 49 32 6 25 33 26 40
1z m-1925 -15 c3 -13 -1 -17 -14 -14 -11 2 -20 11 -22 22 -3 13 1 17 14 14 11
-2 20 -11 22 -22z m1302 -50 c0 -59 -5 -82 -25 -120 -27 -50 -64 -104 -102
-146 -13 -14 -23 -28 -23 -32 0 -5 -7 -8 -16 -8 -15 0 -16 11 -10 92 3 50 6
109 6 130 0 32 4 41 20 45 12 3 27 18 36 34 10 20 22 29 39 29 24 0 55 23 55
41 0 5 5 9 10 9 6 0 10 -31 10 -74z m-550 21 c0 -15 -58 -87 -70 -87 -9 0 -19
56 -11 68 8 10 52 30 69 31 6 1 12 -5 12 -12z m-2485 -17 c3 -5 -2 -10 -12
-10 -10 0 -24 -10 -32 -21 -10 -18 -15 -19 -22 -8 -10 16 -12 35 -3 26 4 -3
13 0 21 8 17 17 39 19 48 5z m77 -22 c-6 -6 -16 -7 -22 -3 -9 6 -9 9 1 16 17
10 34 0 21 -13z m1673 11 c12 -19 -5 -23 -22 -6 -16 16 -16 17 -1 17 9 0 20
-5 23 -11z m619 -5 c8 -21 8 -68 0 -89 -6 -16 -92 -60 -101 -52 -2 2 13 17 32
32 l36 27 -20 19 c-23 22 -27 49 -9 67 17 17 55 15 62 -4z m355 -21 c43 -86
67 -233 43 -271 -12 -18 -40 -4 -58 29 -11 22 -22 29 -43 29 -24 0 -30 5 -35
31 -5 28 -8 30 -36 24 -22 -5 -32 -3 -36 8 -3 9 -19 14 -45 14 -31 0 -47 -6
-70 -30 -22 -21 -33 -27 -41 -19 -13 13 66 109 140 170 56 47 64 50 119 51 39
1 44 -2 62 -36z m91 13 c14 -6 26 -20 28 -30 6 -30 -8 -126 -19 -126 -5 0 -9
6 -9 14 0 7 -16 45 -35 82 -19 38 -35 73 -35 77 0 9 30 2 70 -17z m-1164 -66
c27 -57 39 -140 21 -140 -21 0 -90 98 -84 120 3 10 -1 24 -9 31 -19 15 -18 27
4 32 34 9 47 1 68 -43z m209 -73 c53 4 73 2 82 -8 19 -25 34 -197 24 -282 -9
-83 -17 -101 -31 -76 -5 8 -25 37 -44 65 -95 133 -118 172 -137 235 -12 38
-18 77 -15 86 6 14 9 14 29 -5 19 -17 31 -19 92 -15z m248 -22 c-5 -64 -53
-64 -53 0 0 39 6 46 33 35 16 -6 21 -15 20 -35z m77 16 c0 -19 -26 -48 -36
-39 -3 3 -2 17 2 32 7 30 34 36 34 7z m134 1 c2 -4 -9 -29 -25 -55 -34 -55
-48 -91 -79 -202 -29 -102 -90 -221 -158 -310 l-23 -30 7 55 c3 30 13 79 20
108 8 29 14 87 14 128 0 79 13 116 70 199 63 90 75 99 162 114 4 0 9 -3 12 -7z
m-998 -28 c4 -14 1 -36 -7 -50 -10 -20 -18 -24 -40 -19 -15 3 -30 1 -34 -4
-12 -21 -45 -12 -55 15 -21 54 -15 64 39 64 28 0 53 5 56 10 12 19 35 10 41
-16z m307 -108 c135 -133 178 -182 220 -247 63 -99 70 -163 32 -287 l-16 -54
-82 84 c-46 45 -99 94 -120 108 -20 14 -37 29 -37 33 0 5 27 6 60 2 59 -7 98
5 85 25 -3 4 2 13 10 20 22 19 18 54 -10 80 -14 13 -25 32 -25 42 0 10 -7 18
-15 18 -9 0 -21 11 -27 25 -10 22 -16 25 -40 20 -26 -6 -29 -4 -35 25 -4 24
-14 36 -37 45 -26 11 -31 19 -31 47 0 31 -2 33 -40 36 -22 2 -45 8 -51 13 -8
6 -21 5 -38 -2 -32 -15 -43 -6 -52 39 -6 29 -4 33 26 46 58 24 106 -1 223
-118z m1642 114 c-3 -5 -14 -10 -23 -10 -15 0 -15 2 -2 10 20 13 33 13 25 0z
m-2127 -66 c2 -31 -2 -56 -12 -69 -13 -19 -16 -17 -40 39 -27 61 -26 71 9 79
34 8 40 2 43 -49z m2281 40 c13 -11 -17 -19 -66 -17 -62 3 -82 11 -62 24 13 8
118 2 128 -7z m-2505 -23 c10 -11 13 -22 8 -25 -15 -9 -72 14 -72 30 0 21 44
17 64 -5z m122 2 c7 -10 14 -27 14 -37 0 -18 -2 -18 -25 4 -26 25 -33 50 -14
50 7 0 18 -8 25 -17z m-249 -24 c6 -6 24 -12 39 -14 91 -9 150 -20 160 -29 22
-22 65 -97 60 -105 -3 -4 -38 -2 -79 4 -67 11 -81 17 -160 76 -47 35 -83 67
-81 71 8 12 48 10 61 -3z m1293 1 c0 -5 -4 -10 -10 -10 -5 0 -10 5 -10 10 0 6
5 10 10 10 6 0 10 -4 10 -10z m1315 0 c3 -5 15 -10 26 -10 55 0 -4 -41 -130
-89 -86 -33 -111 -34 -111 -5 0 13 -7 15 -32 11 -18 -3 -41 -8 -50 -12 -12 -5
-20 -1 -25 11 -11 28 29 51 130 73 148 33 183 36 192 21z m80 -103 c-13 -31
-30 -77 -36 -102 -11 -43 -15 -47 -83 -80 -62 -31 -74 -34 -98 -24 -16 6 -28
18 -28 26 0 8 -9 17 -20 20 -22 6 -26 18 -9 29 6 3 8 15 6 26 -5 16 10 26 86
63 51 24 115 59 142 78 28 19 53 32 58 28 4 -4 -4 -33 -18 -64z m-2717 24 c18
-12 32 -26 32 -31 0 -4 -30 0 -67 10 -76 20 -123 37 -123 44 0 3 28 4 63 3 47
-2 71 -9 95 -26z m2812 4 c17 -9 30 -20 30 -25 0 -6 8 -10 18 -10 9 0 25 -7
36 -15 16 -12 23 -12 48 1 19 10 40 13 60 8 l31 -6 -34 -15 c-61 -27 -193 -73
-246 -87 -61 -16 -62 -14 -38 54 15 43 53 110 61 110 3 0 18 -7 34 -15z
m-2335 -35 c8 0 24 -6 36 -12 17 -11 22 -10 30 5 14 24 32 21 44 -5 6 -13 17
-24 25 -24 8 -1 21 -2 28 -3 21 -2 13 -30 -13 -47 -17 -11 -24 -22 -20 -34 9
-29 -14 -34 -46 -11 -35 26 -53 19 -44 -16 5 -20 3 -24 -12 -19 -10 3 -36 -1
-58 -8 -46 -16 -72 -11 -54 10 6 8 17 14 23 14 6 0 22 10 36 21 l25 21 -45 -6
c-25 -4 -61 -9 -80 -13 l-35 -6 24 27 c14 14 32 26 42 26 29 0 40 23 23 48
-12 17 -12 26 -4 43 11 19 13 19 35 5 14 -9 31 -16 40 -16z m-506 -21 c41 -11
84 -19 95 -19 20 -1 76 -42 76 -56 0 -15 -34 -44 -50 -44 -10 0 -21 7 -24 16
-4 11 -13 14 -27 11 -15 -4 -34 4 -59 25 -53 42 -76 33 -85 -32 -4 -28 -12
-50 -19 -50 -25 0 -136 125 -136 153 0 12 12 17 48 19 57 4 85 1 181 -23z
m-379 3 c0 -4 -7 -18 -16 -31 -13 -18 -18 -20 -25 -10 -5 8 -2 20 8 31 17 19
33 24 33 10z m137 -31 c13 -19 22 -36 20 -38 -11 -11 -66 12 -77 32 -29 54 22
59 57 6z m-304 3 c40 -21 40 -21 33 -33 -7 -11 -76 25 -76 40 0 12 6 11 43 -7z
m2297 -4 c20 -37 -40 -100 -164 -176 -81 -49 -92 -52 -81 -26 4 9 22 58 40
107 l33 90 58 11 c87 17 102 16 114 -6z m234 12 c2 -4 -2 -22 -9 -39 -12 -29
-17 -32 -44 -27 -24 5 -38 0 -68 -25 -21 -17 -47 -31 -59 -31 -11 0 -35 -5
-53 -11 -18 -6 -35 -9 -38 -6 -3 3 13 27 35 54 22 26 44 57 50 68 9 18 21 21
96 23 47 1 87 -2 90 -6z m1116 -17 c23 -28 -21 -50 -48 -23 -21 21 -14 29 29
37 4 0 12 -6 19 -14z m-860 -7 c8 0 24 2 34 4 19 3 54 -41 55 -70 1 -15 -48
-61 -66 -62 -18 0 -27 20 -14 33 18 18 12 37 -12 37 -13 0 -27 -4 -32 -9 -13
-12 -75 -2 -75 12 0 6 12 24 27 39 20 21 33 27 48 23 11 -4 27 -7 35 -7z
m1026 -3 c29 -9 56 -25 67 -40 20 -27 9 -32 -26 -13 -12 7 -38 17 -57 23 -19
6 -36 18 -38 28 -4 21 -7 20 54 2z m-2933 -12 c15 -9 6 -31 -18 -47 -23 -15
-26 -15 -60 15 -19 17 -35 36 -35 41 0 9 94 2 113 -9z m2577 -42 c0 -6 -5 -13
-11 -17 -8 -4 -8 -9 0 -17 19 -19 12 -25 -31 -32 -24 -4 -59 -17 -80 -28 -29
-17 -42 -19 -64 -12 -15 6 -29 15 -31 21 -4 11 58 42 147 74 64 22 70 23 70
11z m-3041 -64 c1 -5 -5 -14 -12 -21 -10 -11 -15 -11 -25 0 -6 7 -19 17 -28
22 -12 7 -15 17 -10 36 l7 27 34 -28 c18 -15 34 -32 34 -36z m1948 -15 c6 -4
21 -28 32 -52 12 -25 26 -52 33 -61 14 -20 1 -37 -146 -190 -169 -174 -209
-269 -235 -546 -5 -56 -12 -107 -16 -112 -7 -12 -35 -3 -35 10 0 5 -22 48 -50
97 -75 132 -113 248 -114 352 -1 75 2 91 28 140 40 76 105 158 175 222 100 90
283 169 328 140z m860 -50 c16 -10 4 -27 -24 -36 -20 -6 -23 -4 -23 18 0 26
21 34 47 18z m-2663 -17 c3 -8 15 -15 26 -15 26 0 37 -27 22 -51 -7 -10 -12
-26 -12 -35 0 -23 -34 -13 -38 11 -5 27 -30 45 -64 45 -18 0 -28 5 -28 15 0 8
8 15 19 15 10 0 24 7 31 15 7 8 18 15 25 15 7 0 15 -7 19 -15z m785 -14 c12
-8 7 -21 -29 -72 -53 -76 -69 -118 -70 -186 0 -29 -4 -53 -8 -53 -24 0 -132
147 -132 179 0 38 14 54 38 47 12 -4 34 0 51 8 17 9 41 16 54 16 26 0 67 33
67 55 0 17 9 19 29 6z m1984 -7 c10 -10 -12 -44 -28 -44 -15 0 -21 31 -8 43 8
9 28 9 36 1z m-693 -24 c0 -5 9 -10 20 -10 27 0 25 -6 -12 -56 -49 -64 -58
-54 -42 44 3 19 11 32 19 32 8 0 15 -4 15 -10z m1147 -1 c6 -6 34 -11 62 -11
53 0 66 -9 66 -43 0 -14 8 -21 25 -23 14 -2 29 -10 33 -18 4 -8 23 -14 42 -14
39 0 49 -11 41 -45 -11 -42 -76 -58 -76 -19 0 8 -4 14 -10 14 -16 0 -12 -25 8
-51 11 -13 22 -39 26 -58 6 -33 5 -33 -12 -18 -21 19 -48 22 -57 7 -10 -16
-32 5 -39 36 -6 21 -11 25 -31 20 -31 -8 -41 9 -21 39 21 32 21 32 -14 40 -16
4 -36 16 -44 27 -11 15 -26 20 -61 20 -34 1 -50 6 -60 21 -7 10 -18 16 -24 12
-6 -3 -14 1 -18 11 -9 23 33 57 61 50 12 -3 28 -1 36 4 20 13 54 12 67 -1z
m-2335 -46 c44 -41 165 -182 190 -223 11 -17 17 -63 22 -151 6 -138 28 -224
90 -362 19 -42 46 -112 60 -157 41 -135 5 -96 -97 105 -133 259 -187 332 -330
444 -78 61 -97 92 -97 155 0 76 70 226 106 226 8 0 33 -17 56 -37z m1640 -4
c30 -31 58 -38 58 -14 0 8 5 15 11 15 7 0 9 -9 6 -21 -3 -13 1 -26 13 -36 15
-13 16 -20 7 -34 -17 -28 -27 -23 -27 13 0 41 -8 32 -14 -15 -3 -21 -8 -42
-11 -47 -10 -17 -39 -11 -70 14 -23 19 -34 22 -51 14 -23 -11 -84 13 -84 33 0
23 35 69 52 69 11 0 18 7 18 18 0 10 3 22 7 26 13 13 57 -5 85 -35z m-552 21
c0 -19 -44 -126 -72 -175 -27 -46 -286 -311 -295 -301 -9 8 19 90 44 130 14
23 70 86 124 141 54 55 108 114 120 130 13 17 26 32 30 35 3 3 11 15 18 28 12
22 31 30 31 12z m190 -65 c-7 -8 -16 -15 -21 -15 -14 0 -11 38 4 43 20 7 31
-11 17 -28z m-2791 -11 c32 17 35 15 45 -26 5 -23 2 -27 -25 -37 -31 -11 -31
-11 -15 -36 23 -35 20 -43 -18 -59 -28 -11 -33 -19 -29 -35 8 -31 -7 -26 -62
23 -39 36 -53 43 -67 35 -27 -15 -34 15 -14 58 12 26 22 34 36 30 12 -3 28 7
49 30 30 34 32 35 50 19 18 -16 22 -16 50 -2z m1021 6 c0 -5 -7 -10 -15 -10
-8 0 -15 5 -15 10 0 6 7 10 15 10 8 0 15 -4 15 -10z m2467 -6 c3 -8 -2 -23
-11 -32 -16 -16 -18 -15 -36 8 -14 18 -15 27 -7 32 20 13 47 9 54 -8z m-3036
-35 c-29 -24 -54 -25 -49 -2 4 23 49 46 63 32 7 -7 2 -17 -14 -30z m556 -51
c32 -12 62 -25 67 -29 5 -4 1 -24 -9 -45 -9 -20 -20 -63 -22 -95 -3 -33 -8
-59 -11 -59 -2 0 -30 20 -61 45 -31 25 -65 52 -76 60 -13 9 -16 17 -10 22 6 5
18 20 27 34 15 23 15 29 2 47 -13 19 -12 22 3 31 24 14 23 14 90 -11z m1743 1
c0 -14 11 -25 35 -35 34 -14 40 -34 10 -34 -7 0 -55 -14 -106 -30 -50 -17 -94
-28 -96 -26 -8 7 129 146 143 146 8 0 14 -9 14 -21z m644 -25 c6 -24 -7 -54
-23 -54 -3 0 -12 9 -19 20 -10 16 -10 24 0 40 17 27 35 25 42 -6z m-2774 -14
c20 -15 23 -21 13 -31 -7 -7 -13 -23 -13 -36 0 -18 7 -25 30 -29 16 -4 32 -15
35 -25 8 -23 23 -24 47 -2 10 9 44 20 75 24 57 8 59 7 112 -33 29 -22 71 -58
92 -79 38 -38 75 -97 66 -106 -3 -2 -33 10 -67 27 -34 17 -98 45 -143 61 -45
17 -106 43 -137 59 -30 16 -80 40 -110 53 -63 28 -145 85 -135 95 8 8 86 40
100 41 6 0 21 -8 35 -19z m615 -122 c67 -68 158 -157 202 -200 64 -61 89 -94
125 -165 53 -104 93 -202 85 -209 -3 -3 -26 15 -51 40 -50 49 -150 116 -276
185 -100 55 -187 133 -224 202 -25 44 -29 64 -29 123 1 66 22 146 39 146 4 0
62 -55 129 -122z m1615 44 c0 -27 9 -32 37 -21 38 14 39 5 5 -38 -17 -21 -55
-78 -84 -128 -49 -82 -62 -95 -139 -148 -46 -32 -129 -83 -184 -113 -55 -31
-126 -79 -158 -106 -32 -28 -60 -48 -63 -45 -3 2 4 31 15 63 10 33 31 97 46
144 61 197 163 292 405 376 111 39 120 40 120 16z m415 -13 c4 -6 19 -7 36 -4
38 9 38 -10 -1 -30 -45 -23 -60 -20 -60 15 0 30 13 40 25 19z m-2759 -24 c87
-26 214 -88 214 -106 0 -5 -35 -9 -77 -9 -43 0 -107 -5 -143 -11 -36 -6 -78
-12 -94 -15 -16 -2 -46 -9 -67 -14 -43 -12 -68 -5 -50 13 19 19 12 42 -19 72
-34 33 -38 47 -12 44 9 -2 27 1 39 5 13 4 31 2 44 -4 32 -18 69 -5 69 25 0 14
2 25 4 25 2 0 43 -11 92 -25z m2566 -13 c5 -19 15 -32 24 -32 10 0 14 -7 12
-22 -3 -19 -16 -26 -92 -45 -49 -13 -109 -34 -133 -48 -34 -20 -43 -23 -43
-11 0 20 88 156 103 160 7 2 32 10 57 19 57 19 62 18 72 -21z m425 8 c31 -24
61 -25 91 -4 12 8 26 13 31 10 16 -10 21 -72 10 -105 -13 -37 -1 -36 -169 -12
-36 5 -96 13 -135 16 -38 4 -74 11 -79 15 -10 10 56 45 144 76 81 28 77 28
107 4z m-3447 -79 c16 -31 12 -57 -12 -69 -13 -6 -18 -11 -11 -11 6 -1 17 -16
23 -35 13 -41 35 -52 66 -31 23 15 54 11 54 -6 0 -5 9 -9 19 -9 12 0 26 -13
35 -32 20 -38 20 -38 1 -38 -8 0 -15 -9 -15 -19 0 -32 -16 -32 -49 -1 -39 38
-59 38 -63 3 -3 -24 -8 -28 -35 -28 -21 0 -42 -9 -63 -30 -30 -29 -31 -29 -37
-7 -3 15 -13 22 -29 22 -26 0 -30 10 -13 27 8 8 8 17 0 32 -15 26 11 81 37 81
10 0 26 14 35 30 16 26 16 30 3 30 -20 0 -21 16 -1 24 12 4 13 11 5 31 -14 36
-13 43 8 48 29 8 31 7 42 -12z m3880 -35 c17 -37 19 -49 10 -67 -14 -25 -23
-18 -39 30 -13 41 -14 81 -2 81 5 0 19 -20 31 -44z m-774 -13 c24 -15 27 -15
55 1 27 16 36 16 127 2 53 -8 123 -17 155 -21 38 -4 57 -11 57 -20 0 -22 -20
-28 -45 -15 -36 19 -72 5 -80 -29 -5 -22 -14 -31 -35 -36 -32 -7 -80 -44 -80
-62 0 -24 64 -58 107 -58 46 0 64 -18 23 -24 -40 -5 -303 45 -414 80 -16 5
-67 12 -113 16 -52 4 -83 10 -83 17 0 18 70 82 117 106 35 18 150 57 176 59 4
1 19 -7 33 -16z m-2226 -46 c64 -27 200 -113 200 -127 0 -4 -36 -10 -79 -13
-58 -5 -122 -21 -231 -57 -157 -53 -179 -55 -220 -22 -20 16 -21 21 -9 39 25
41 -11 81 -93 107 -10 3 -18 14 -18 24 0 28 -25 44 -70 46 -53 1 -51 13 3 20
23 3 53 8 67 10 14 2 106 3 205 2 171 -2 183 -3 245 -29z m2964 -46 c4 -1 5
-12 2 -26 -7 -28 -4 -30 25 -15 15 9 21 7 26 -6 10 -27 -30 -52 -82 -52 -29 1
-52 -5 -63 -15 -24 -22 -39 -21 -45 2 -3 12 -18 22 -38 26 -31 7 -48 20 -49
36 0 9 90 34 113 31 10 -1 20 4 23 11 4 12 34 15 88 8z m-374 -182 c0 -5 -4
-9 -10 -9 -5 0 -10 7 -10 16 0 8 5 12 10 9 6 -3 10 -10 10 -16z m-2950 -4 c15
-18 4 -24 -50 -28 -44 -3 -47 14 -6 29 43 16 42 16 56 -1z m2759 -10 c80 -9
147 -18 150 -20 2 -3 -10 -18 -27 -34 -31 -27 -32 -28 -11 -37 12 -5 27 -28
35 -49 13 -38 12 -41 -9 -60 -12 -11 -34 -21 -49 -23 -22 -3 -28 1 -28 17 0
11 4 22 9 25 14 9 0 56 -20 67 -11 5 -19 16 -19 25 0 23 -41 34 -67 17 -12 -8
-27 -12 -32 -9 -23 14 -91 80 -91 88 0 10 -10 11 159 -7z m-2918 -5 c26 -15
24 -30 -5 -30 -27 0 -41 14 -31 30 8 13 12 12 36 0z m337 -32 c-2 -7 -26 -28
-54 -46 -27 -19 -52 -42 -56 -51 -10 -29 -31 -30 -73 -5 -22 13 -57 33 -77 44
-21 11 -38 24 -38 29 0 11 73 21 159 22 36 1 77 5 91 9 38 12 52 11 48 -2z
m-225 -118 c4 -15 -3 -24 -29 -36 -39 -19 -53 -14 -29 9 8 9 15 23 15 31 0 23
37 20 43 -4z m1039 -1436 c4 -3 -1 -25 -9 -50 l-15 -44 -650 0 -650 0 -54 42
c-30 24 -54 46 -54 50 0 9 1424 11 1432 2z m2208 -2 c0 -4 -24 -26 -54 -50
l-54 -42 -675 0 -675 0 -16 47 c-9 26 -16 48 -16 50 0 2 335 3 745 3 410 0
745 -3 745 -8z m-2360 -300 c0 -15 -147 -150 -214 -196 l-68 -47 -67 22 c-148
49 -365 143 -474 205 l-42 24 433 0 c237 0 432 -3 432 -8z m1890 -23 c-114
-64 -265 -130 -419 -183 -93 -33 -108 -35 -140 -25 -51 16 -157 88 -221 151
-102 98 -145 88 376 88 l459 0 -55 -31z"/>
<path d="M4780 9173 c0 -9 -7 -25 -17 -35 -9 -10 -11 -18 -6 -18 14 0 29 19
37 48 5 13 3 22 -3 22 -6 0 -11 -8 -11 -17z"/>
<path d="M4795 9139 c-10 -29 -3 -31 18 -3 15 20 15 24 3 24 -8 0 -18 -9 -21
-21z"/>
<path d="M4770 9070 c0 -5 5 -10 10 -10 6 0 10 5 10 10 0 6 -4 10 -10 10 -5 0
-10 -4 -10 -10z"/>
<path d="M4160 8529 c-8 -5 -11 -9 -7 -9 5 0 1 -7 -8 -16 -26 -27 -9 -27 19 0
27 24 23 43 -4 25z"/>
<path d="M4036 8504 c-9 -8 -13 -20 -10 -26 4 -6 -1 -17 -11 -25 -11 -7 -14
-13 -8 -13 15 0 34 25 31 41 -2 9 11 16 37 19 36 5 37 6 15 13 -34 9 -36 9
-54 -9z"/>
<path d="M4070 8454 c0 -9 5 -14 12 -12 18 6 21 28 4 28 -9 0 -16 -7 -16 -16z"/>
<path d="M3961 8446 c-6 -7 -8 -21 -5 -30 4 -11 -2 -26 -17 -42 l-24 -25 28
10 c20 8 27 7 27 -1 0 -6 3 -8 8 -4 13 14 8 55 -8 61 -13 6 -13 8 3 20 10 7
14 16 9 19 -5 3 -15 0 -21 -8z"/>
<path d="M3698 7828 c9 -9 15 -9 24 0 9 9 7 12 -12 12 -19 0 -21 -3 -12 -12z"/>
<path d="M7916 7775 c-3 -8 -1 -15 4 -15 6 0 10 7 10 15 0 8 -2 15 -4 15 -2 0
-6 -7 -10 -15z"/>
<path d="M6430 8750 c0 -5 5 -10 11 -10 5 0 7 5 4 10 -3 6 -8 10 -11 10 -2 0
-4 -4 -4 -10z"/>
<path d="M4727 8733 c-11 -10 -8 -43 3 -43 9 0 30 31 30 44 0 8 -25 7 -33 -1z"/>
<path d="M7685 8550 c3 -5 13 -10 21 -10 8 0 12 5 9 10 -3 6 -13 10 -21 10 -8
0 -12 -4 -9 -10z"/>
<path d="M5931 8026 c-10 -12 -8 -13 8 -9 12 3 18 9 15 14 -7 12 -10 11 -23
-5z"/>
<path d="M7480 7870 c0 -5 5 -10 10 -10 6 0 10 5 10 10 0 6 -4 10 -10 10 -5 0
-10 -4 -10 -10z"/>
<path d="M7790 7170 c0 -5 5 -10 10 -10 6 0 10 5 10 10 0 6 -4 10 -10 10 -5 0
-10 -4 -10 -10z"/>
<path d="M7890 7104 c0 -8 5 -12 10 -9 6 4 8 11 5 16 -9 14 -15 11 -15 -7z"/>
<path d="M2720 3775 c-192 -53 -337 -196 -386 -380 -18 -66 -17 -206 1 -274
43 -163 169 -301 330 -360 84 -32 211 -38 307 -17 174 39 332 189 385 364 25
83 23 219 -5 307 -48 159 -168 285 -327 344 -79 30 -227 37 -305 16z m280
-216 c69 -37 122 -92 153 -159 30 -66 31 -217 0 -282 -30 -66 -96 -133 -162
-165 -48 -24 -68 -28 -141 -28 -71 0 -94 4 -140 26 -80 37 -125 81 -162 157
-30 60 -33 75 -32 153 0 77 4 94 33 153 44 89 120 152 216 177 17 5 62 7 102
4 58 -3 84 -10 133 -36z"/>
<path d="M3732 3772 c-66 -24 -136 -90 -158 -149 -12 -31 -15 -61 -12 -107 7
-87 53 -155 177 -260 142 -120 209 -188 216 -219 16 -63 -47 -121 -124 -114
-53 6 -86 29 -127 90 l-32 46 -68 -41 c-104 -61 -102 -58 -65 -117 41 -63 100
-117 160 -145 70 -32 217 -30 286 4 168 82 215 282 101 432 -19 24 -74 77
-122 118 -213 177 -246 224 -188 269 49 38 115 20 176 -47 l37 -41 71 66 71
66 -53 54 c-100 101 -229 137 -346 95z"/>
<path d="M7840 3770 c-183 -49 -330 -192 -376 -365 -8 -27 -14 -93 -14 -145 0
-165 40 -268 145 -376 105 -107 214 -149 390 -149 171 0 274 38 397 148 l47
42 -63 68 -64 69 -54 -43 c-147 -117 -324 -131 -464 -37 -101 69 -151 175
-141 303 10 128 72 222 184 277 61 30 76 33 153 33 108 0 171 -22 258 -87 l65
-50 66 66 65 65 -24 26 c-44 47 -155 115 -230 142 -103 36 -236 41 -340 13z"/>
<path d="M9003 3776 c-188 -46 -339 -194 -389 -381 -18 -66 -17 -206 1 -274
46 -176 185 -318 359 -368 279 -81 564 65 657 337 31 90 32 228 1 325 -82 266
-361 426 -629 361z m258 -205 c137 -64 210 -196 196 -350 -10 -115 -81 -217
-186 -268 -48 -24 -68 -28 -141 -28 -70 0 -95 5 -140 26 -79 37 -125 81 -162
157 -30 60 -33 75 -33 153 1 77 5 94 33 152 46 93 117 151 217 178 50 14 167
3 216 -20z"/>
<path d="M10040 3776 c-160 -43 -240 -191 -180 -331 25 -58 113 -151 248 -262
56 -46 109 -97 117 -113 18 -35 19 -81 3 -102 -63 -76 -184 -59 -245 36 -15
25 -32 45 -36 46 -4 0 -41 -21 -82 -47 l-74 -47 21 -36 c64 -105 132 -157 241
-181 67 -14 164 -1 227 31 37 19 99 81 120 119 25 48 32 129 15 193 -20 77
-56 122 -194 241 -169 145 -204 184 -196 215 15 67 104 84 169 33 20 -16 45
-39 55 -52 l19 -23 66 58 c36 32 66 63 66 70 0 15 -79 89 -129 120 -40 25
-114 46 -158 45 -15 0 -48 -6 -73 -13z"/>
<path d="M10830 3781 c-118 -24 -210 -130 -210 -241 0 -104 63 -187 275 -363
129 -108 155 -165 98 -221 -32 -32 -61 -40 -115 -33 -43 6 -94 47 -126 100 -9
15 -20 27 -24 27 -4 0 -41 -21 -83 -46 l-75 -46 23 -39 c45 -76 90 -119 156
-152 59 -29 75 -32 151 -31 75 0 93 4 150 32 169 84 208 287 84 435 -13 16
-61 61 -107 99 -176 151 -206 180 -215 206 -18 53 16 93 80 91 46 -1 61 -8
112 -57 l46 -44 65 57 c36 32 65 63 65 69 0 14 -71 83 -116 114 -35 24 -134
53 -174 51 -14 -1 -41 -4 -60 -8z"/>
<path d="M1710 3260 l0 -510 235 0 235 0 0 95 0 95 -140 0 -140 0 0 415 0 415
-95 0 -95 0 0 -510z"/>
<path d="M4710 3675 l0 -94 88 -3 87 -3 3 -412 2 -413 95 0 95 0 0 415 0 415
95 0 95 0 0 95 0 95 -280 0 -280 0 0 -95z"/>
<path d="M6620 3260 l0 -510 95 0 95 0 2 210 c2 116 7 211 11 213 9 2 14 -5
137 -237 50 -92 90 -172 90 -177 0 -5 50 -9 110 -9 61 0 110 2 110 5 0 3 -52
101 -115 219 -63 118 -115 218 -115 224 0 6 13 15 29 20 43 15 111 81 131 127
41 97 31 216 -25 302 -65 99 -143 123 -397 123 l-158 0 0 -510z m377 294 c33
-25 49 -78 34 -116 -16 -43 -54 -61 -142 -66 l-79 -5 0 108 0 107 79 -3 c61
-3 86 -9 108 -25z"/>
<path d="M5782 3723 c-11 -31 -196 -517 -207 -545 -5 -14 -19 -18 -56 -18 -27
0 -49 -4 -49 -10 0 -5 14 -25 31 -45 l31 -35 -33 -93 c-18 -50 -45 -123 -61
-161 -15 -38 -28 -73 -28 -77 0 -5 44 -9 99 -9 l98 0 33 88 c18 48 36 90 40
94 3 4 53 -40 110 -97 l105 -105 106 106 107 106 37 -96 37 -96 99 0 c56 0 99
4 99 10 0 5 -27 78 -60 162 -33 84 -60 158 -60 164 0 5 14 23 30 39 43 41 39
53 -21 57 l-52 3 -42 110 c-23 61 -74 191 -113 290 l-70 180 -100 3 -100 3
-10 -28z m268 -650 c0 -2 -35 -39 -77 -83 l-78 -80 -77 76 c-43 42 -78 80 -78
85 0 7 33 96 140 374 11 29 15 22 91 -170 43 -110 79 -201 79 -202z"/>
<path d="M9355 2421 c-122 -56 -144 -209 -42 -298 139 -122 347 42 268 212
-42 92 -136 128 -226 86z m145 -33 c92 -63 92 -194 0 -256 -29 -20 -44 -23
-88 -20 -59 5 -95 31 -118 85 -58 135 89 270 206 191z"/>
<path d="M9392 2288 c-21 -21 -14 -57 14 -70 31 -14 57 -1 62 29 6 40 -48 69
-76 41z"/>
<path d="M8650 2260 c0 -144 2 -170 15 -170 12 0 15 16 15 80 l0 80 90 0 90 0
0 -80 c0 -64 3 -80 15 -80 13 0 15 26 15 170 0 144 -2 170 -15 170 -12 0 -15
-15 -15 -75 l0 -75 -90 0 -90 0 0 75 c0 60 -3 75 -15 75 -13 0 -15 -26 -15
-170z"/>
<path d="M9920 2415 c0 -11 11 -15 40 -15 l40 0 0 -155 c0 -97 4 -155 10 -155
6 0 10 58 10 155 l0 155 40 0 c29 0 40 4 40 15 0 12 -17 15 -90 15 -73 0 -90
-3 -90 -15z"/>
<path d="M10441 2260 l0 -170 94 0 c78 0 95 3 95 15 0 12 -16 15 -80 15 l-80
0 0 70 0 70 80 0 c64 0 80 3 80 15 0 12 -16 15 -80 15 l-80 0 0 55 0 55 80 0
c64 0 80 3 80 15 0 12 -17 15 -94 15 l-94 0 -1 -170z"/>
<path d="M10970 2260 l0 -170 80 0 c64 0 80 3 80 15 0 12 -14 15 -65 15 l-65
0 0 155 c0 131 -2 155 -15 155 -13 0 -15 -26 -15 -170z"/>
</g>
</svg>
