<?xml version="1.0" standalone="no"?>
<!DOCTYPE svg PUBLIC "-//W3C//DTD SVG 20010904//EN"
 "http://www.w3.org/TR/2001/REC-SVG-20010904/DTD/svg10.dtd">
<svg version="1.0" xmlns="http://www.w3.org/2000/svg"
 width="605.682589pt" height="605.648482pt" viewBox="0 0 605.682589 605.648482"
 preserveAspectRatio="xMidYMid meet">
<metadata>
Created by potrace 1.16, written by Peter Selinger 2001-2019
</metadata>
<g transform="translate(-30.137076,607.819209) scale(0.100000,-0.100000)"
fill="#000000" stroke="none">
<path d="M3065 6069 c-279 -25 -577 -95 -835 -196 -911 -358 -1593 -1128
-1834 -2068 -137 -537 -125 -1105 34 -1632 227 -751 742 -1389 1435 -1775 591
-330 1300 -449 1980 -333 617 106 1177 396 1620 840 147 146 201 208 302 345
409 556 613 1212 589 1900 -20 619 -221 1197 -588 1697 -104 142 -169 217
-307 353 -511 508 -1162 808 -1886 870 -140 11 -367 11 -510 -1z m645 -194
c948 -131 1755 -713 2179 -1572 133 -268 220 -554 268 -878 27 -183 24 -591
-5 -780 -99 -640 -372 -1178 -825 -1625 l-111 -110 -786 0 -787 0 -17 62 c-48
172 -61 429 -30 585 14 70 15 94 6 130 -7 24 -12 109 -12 190 0 140 1 148 27
192 73 125 178 237 303 321 183 123 230 137 402 115 68 -8 128 -15 134 -15 6
0 46 -27 88 -61 84 -65 119 -73 46 -10 -25 22 -43 42 -39 45 6 6 299 -20 307
-29 3 -3 -9 -18 -26 -33 -31 -28 -31 -28 -9 -37 14 -6 28 -28 38 -58 8 -26 18
-45 21 -42 3 3 21 -10 40 -28 27 -26 35 -40 31 -58 -3 -16 2 -30 12 -39 15
-12 21 -12 47 3 l30 17 -7 -40 c-8 -45 5 -70 37 -70 12 0 23 11 30 31 l10 30
22 -20 c28 -27 52 -27 66 0 9 16 8 26 -4 44 -21 32 -20 35 8 35 13 0 29 7 37
16 11 13 10 21 -5 49 -10 18 -16 39 -13 47 2 7 -3 25 -11 40 -25 43 -3 47 30
6 32 -41 66 -49 89 -22 9 11 23 14 46 11 38 -7 58 15 42 45 -11 20 -9 21 39
18 21 -1 34 4 38 14 3 8 19 19 35 25 34 12 37 31 9 56 -15 14 -29 16 -64 12
-48 -7 -72 8 -42 25 26 14 19 52 -13 76 -26 19 -29 27 -27 68 2 25 9 51 15 57
6 6 11 20 11 31 0 12 4 28 9 36 8 11 17 5 49 -30 l39 -44 36 18 c44 20 48 49
15 91 -26 34 -14 60 28 60 21 0 32 7 42 28 18 38 -2 78 -47 93 l-34 11 37 33
c45 41 48 79 9 110 -15 11 -33 18 -41 15 -8 -3 -26 2 -39 11 -21 13 -24 21
-19 48 8 41 -9 57 -66 62 -22 2 -43 5 -45 7 -1 2 0 25 3 51 6 37 11 47 30 52
34 9 39 39 15 84 -24 46 -13 52 37 23 40 -23 64 -5 58 43 -2 25 0 32 8 25 7
-6 16 -7 21 -3 30 21 3 88 -37 94 -22 3 -22 4 10 33 38 35 41 59 10 79 -17 10
-34 12 -63 6 -40 -8 -37 -9 35 -13 34 -3 36 -50 2 -55 -14 -2 -22 -10 -22 -23
0 -24 -32 -25 -55 -2 -14 14 -18 14 -26 2 -5 -8 -9 -16 -9 -19 0 -3 -13 -11
-29 -17 -27 -10 -30 -9 -33 11 -2 11 -10 21 -18 21 -20 1 -80 46 -74 56 3 5
-4 14 -16 21 -26 17 -26 44 1 51 19 5 21 11 16 41 -5 34 -4 36 21 36 19 0 35
11 55 35 31 39 28 55 -8 55 -15 0 -26 7 -30 20 -6 20 -31 26 -51 12 -16 -11
-23 -38 -13 -51 6 -8 5 -8 -3 -1 -7 6 -20 10 -30 10 -11 0 -18 7 -18 19 0 38
-30 48 -82 26 -13 -5 -18 -2 -18 8 0 26 -31 49 -56 43 -22 -6 -24 -3 -24 30
l0 36 39 -7 c29 -5 41 -3 48 8 8 13 64 37 88 37 7 0 16 -11 19 -24 9 -36 37
-42 61 -12 12 14 28 26 37 26 9 0 18 6 21 13 6 17 -3 66 -14 73 -19 11 -8 34
16 34 18 0 25 5 25 20 0 19 -8 29 -42 53 -16 10 -16 17 -6 50 10 32 9 40 -3
48 -34 21 -59 -6 -37 -41 7 -10 10 -22 7 -25 -12 -12 -152 -14 -170 -2 -14 9
-26 9 -49 0 -39 -15 -49 0 -22 37 l20 27 -20 21 c-24 23 -17 42 15 42 12 0 28
9 34 19 10 16 9 18 -7 14 -17 -5 -18 -3 -7 21 14 31 23 33 32 6 3 -11 10 -20
15 -20 13 0 -1 41 -17 47 -16 6 -45 -15 -37 -28 3 -5 3 -9 0 -9 -3 0 -12 16
-20 35 -10 24 -22 35 -35 35 -22 0 -61 -33 -61 -50 0 -20 -44 -29 -67 -14 -12
8 -31 14 -43 14 -24 0 -25 16 -4 59 14 29 14 34 0 56 -9 14 -21 25 -26 25 -6
0 -10 8 -10 18 0 25 -20 42 -48 42 -22 0 -24 3 -19 29 7 35 -12 56 -43 46 -14
-4 -20 -2 -20 8 0 8 -7 20 -15 27 -8 7 -15 22 -15 34 0 29 -59 70 -77 54 -10
-8 -19 -6 -36 11 -30 27 -45 27 -57 -3 -5 -14 -19 -26 -32 -29 -17 -3 -15 -5
10 -6 26 -1 32 3 32 19 0 27 26 25 55 -5 29 -28 31 -35 10 -35 -27 0 -15 -20
21 -35 36 -15 37 -16 19 -36 -21 -22 -30 -59 -15 -59 6 0 10 6 10 14 0 8 9 18
20 21 42 13 96 -24 106 -73 l6 -28 -69 0 c-37 -1 -78 -4 -89 -8 -13 -4 -28 -1
-36 6 -29 27 -58 37 -88 32 -27 -6 -30 -4 -30 20 0 14 -5 26 -11 26 -6 0 -9 6
-6 13 2 6 -4 26 -14 43 l-19 31 26 22 c24 21 25 24 10 39 -12 12 -19 13 -27 5
-6 -6 -18 -9 -27 -6 -8 4 -21 -2 -29 -13 -14 -18 -15 -18 -34 5 -18 21 -18 26
-4 41 8 9 15 24 15 33 0 19 -33 39 -57 35 -11 -2 -19 6 -23 22 -6 28 -45 39
-78 21 -23 -12 -38 -3 -52 33 l-10 28 -68 -7 c-37 -4 -73 -12 -79 -17 -23 -19
-14 0 16 33 37 40 43 62 24 89 -13 18 -21 20 -54 15 l-40 -7 7 41 c5 32 3 46
-11 61 -19 21 -79 28 -90 10 -11 -19 -25 -10 -39 25 -18 42 -48 46 -83 13 -20
-18 -27 -20 -43 -11 -14 10 -21 9 -31 -3 -22 -27 -53 -13 -59 26 -5 34 -7 35
-45 33 -35 -1 -43 3 -57 28 -20 35 -41 37 -62 7 -14 -19 -18 -20 -40 -9 -33
18 -63 6 -71 -28 -9 -43 -36 -34 -63 22 -31 62 -69 64 -92 3 -7 -20 -15 -26
-26 -22 -24 9 -44 -12 -44 -45 0 -30 -17 -38 -37 -18 -19 19 -43 2 -43 -31 0
-34 -10 -37 -45 -14 -41 27 -94 -1 -74 -39 14 -25 2 -75 -21 -87 -13 -7 -27
-5 -50 8 -31 17 -32 17 -47 -5 -10 -15 -26 -23 -44 -23 -23 0 -28 -5 -31 -27
-2 -22 -12 -31 -48 -44 -27 -10 -49 -13 -56 -8 -6 5 -22 4 -38 -4 -23 -10 -26
-17 -22 -41 5 -24 0 -35 -28 -62 -40 -38 -53 -42 -72 -17 -11 17 -14 16 -34
-10 -12 -15 -29 -27 -39 -27 -9 0 -30 -13 -45 -29 -48 -50 -71 -17 -24 35 20
22 15 34 -13 34 -24 0 -30 21 -12 42 17 19 9 40 -12 31 -8 -3 -15 0 -15 7 0
10 -3 10 -14 0 -8 -6 -13 -17 -10 -25 3 -7 -3 -19 -14 -26 -11 -8 -23 -29 -26
-47 -8 -35 -13 -37 -50 -20 -22 9 -29 8 -46 -7 -11 -10 -20 -28 -20 -40 0 -12
-11 -32 -25 -45 -28 -27 -33 -50 -9 -50 9 0 18 -9 21 -19 7 -27 32 -35 53 -16
34 31 68 11 35 -21 -8 -9 -13 -25 -10 -37 4 -16 -2 -27 -21 -41 -23 -16 -29
-17 -51 -5 -23 12 -27 11 -43 -8 -9 -12 -29 -25 -44 -29 -19 -4 -26 -13 -26
-30 0 -13 5 -24 10 -24 6 0 10 -6 10 -14 0 -19 -37 -31 -54 -17 -11 9 -18 4
-34 -20 l-20 -32 -16 31 c-9 17 -25 36 -37 42 -17 10 -21 8 -26 -10 -4 -17
-12 -21 -29 -17 -29 5 -32 -9 -4 -18 13 -4 20 -15 20 -31 0 -17 8 -27 27 -35
l26 -10 -26 -27 c-34 -36 -34 -42 3 -42 35 0 34 2 14 -39 -15 -30 -19 -32 -50
-27 -28 6 -36 3 -50 -19 -18 -28 -49 -33 -58 -10 -8 22 -33 18 -47 -6 l-11
-21 -21 20 c-19 17 -24 18 -35 6 -15 -17 -46 -19 -36 -2 4 6 3 8 -3 5 -11 -7
-10 -118 1 -136 4 -6 16 -9 26 -6 13 4 19 -1 23 -25 5 -24 11 -30 34 -30 15 0
37 10 50 22 22 21 23 21 43 3 18 -16 23 -17 45 -5 23 12 28 11 48 -8 l21 -22
-33 0 -33 0 7 -41 c7 -40 6 -42 -16 -37 -13 3 -31 9 -41 12 -12 6 -20 0 -30
-21 -11 -23 -20 -28 -48 -28 -19 0 -41 -4 -48 -8 -7 -5 -26 0 -46 12 -29 18
-35 19 -45 7 -7 -8 -27 -16 -44 -18 -24 -2 -33 -9 -37 -28 -4 -17 -13 -25 -27
-25 -12 0 -25 -3 -29 -7 -4 -5 9 -8 28 -8 32 0 35 -2 30 -25 -2 -15 0 -25 7
-25 6 0 16 11 21 25 11 29 22 31 55 9 16 -11 34 -14 55 -9 23 5 32 3 37 -10 4
-11 0 -21 -11 -27 -16 -9 -16 -11 3 -32 l21 -23 -20 -18 c-11 -10 -20 -27 -20
-37 0 -23 -27 -35 -49 -21 -22 14 -51 -2 -51 -27 0 -25 -13 -25 -47 -3 -15 10
-40 18 -56 19 -16 1 -32 6 -36 11 -3 5 -24 9 -47 9 -40 -1 -40 -1 -20 -18 l21
-18 -21 -18 c-44 -37 -43 -109 1 -98 21 5 24 2 27 -26 3 -31 6 -33 46 -39 28
-4 49 -1 62 8 17 12 20 12 20 -1 0 -9 -4 -16 -8 -16 -4 0 -15 -13 -25 -29 -22
-38 -7 -81 30 -81 26 0 29 -16 8 -44 -18 -23 -3 -56 24 -56 22 0 45 -25 36
-40 -10 -15 -21 -12 -54 16 -29 24 -51 25 -51 3 0 -6 5 -7 10 -4 6 4 27 -8 47
-25 29 -25 32 -31 14 -25 -20 6 -22 4 -17 -17 3 -12 3 -18 0 -11 -4 9 -9 9
-17 2 -42 -37 -84 -53 -130 -50 -39 2 -53 -1 -73 -20 -39 -36 -30 -74 20 -83
16 -3 31 -8 34 -11 10 -9 -32 -75 -53 -81 -32 -10 -55 -35 -55 -60 0 -31 31
-47 65 -34 14 5 28 10 31 10 9 0 3 -32 -11 -54 -17 -25 -12 -51 11 -60 8 -3
14 -14 14 -24 0 -23 19 -42 42 -42 22 0 58 38 58 62 0 23 29 24 36 1 17 -53
24 -59 70 -57 50 2 74 14 28 14 l-29 0 32 16 c28 14 31 19 22 41 -13 35 -12
40 14 47 14 4 26 0 35 -11 16 -23 15 -62 -3 -69 -10 -4 -11 -11 -5 -22 5 -10
11 -25 14 -35 8 -25 33 -32 61 -17 19 10 30 9 64 -6 50 -22 72 -65 47 -93 -9
-9 -13 -21 -10 -24 4 -4 -1 -9 -10 -13 -10 -4 -29 6 -53 26 l-37 33 -8 -31
c-8 -28 -13 -32 -43 -32 -24 0 -42 -8 -61 -27 -26 -26 -27 -26 -41 -7 -8 10
-24 19 -36 19 -22 0 -24 6 -12 37 10 24 -20 34 -40 14 -19 -18 -35 -21 -35 -6
0 6 5 10 10 10 6 0 10 7 10 16 0 10 6 14 14 11 19 -8 38 17 39 49 0 17 7 29
21 35 20 8 19 9 -4 6 -20 -2 -26 -8 -28 -35 -3 -26 -10 -35 -37 -46 -47 -20
-55 -54 -21 -81 24 -19 25 -23 12 -34 -9 -8 -26 -11 -38 -8 -28 8 -77 -22 -84
-50 -10 -39 2 -55 35 -48 17 3 32 2 36 -4 3 -6 19 -11 35 -11 27 0 28 -2 23
-39 -5 -37 -3 -41 21 -47 26 -6 43 -4 78 11 13 5 18 3 18 -8 0 -8 7 -18 16
-21 25 -10 64 4 64 23 0 26 25 57 34 42 4 -6 -2 -23 -13 -37 -24 -30 -27 -60
-8 -67 9 -3 9 -9 -2 -29 -16 -32 -8 -48 26 -48 20 0 24 -3 17 -17 -14 -33 -10
-75 9 -87 15 -9 22 -7 37 11 23 29 26 29 45 -7 17 -33 45 -39 66 -14 10 12 10
25 2 57 -7 23 -10 43 -8 45 2 2 17 -4 34 -14 28 -17 32 -17 47 -2 13 13 14 20
4 38 -10 19 -9 26 11 46 20 19 30 22 59 15 21 -5 34 -13 32 -21 -2 -7 5 -21
14 -31 14 -15 15 -22 6 -31 -33 -33 6 -72 41 -41 19 17 20 17 34 -4 16 -23 53
-32 53 -12 0 5 5 7 11 3 9 -5 10 4 5 30 l-7 37 34 -6 c25 -5 37 -2 47 10 13
15 11 20 -13 37 -30 22 -35 38 -13 38 8 0 18 5 21 10 9 15 -14 40 -37 40 -33
0 -16 22 77 97 100 82 171 119 265 139 90 19 137 17 233 -7 105 -27 126 -39
174 -93 21 -24 72 -72 113 -106 41 -35 83 -72 93 -84 10 -11 31 -35 45 -51 65
-73 81 -103 92 -171 15 -87 8 -170 -36 -454 -34 -223 -44 -274 -100 -502 l-28
-118 -757 0 -757 0 -122 122 c-454 454 -728 1008 -817 1648 -24 176 -24 578 1
745 104 714 420 1299 956 1774 438 388 1014 634 1615 690 138 13 496 5 635
-14z m-486 -490 c23 -17 56 -20 56 -5 0 13 27 12 70 -3 55 -19 90 -45 90 -68
0 -11 5 -17 10 -14 6 4 9 14 8 23 -3 14 7 18 55 20 51 3 57 1 57 -16 0 -11 7
-25 15 -32 25 -21 18 -48 -15 -55 -22 -5 -32 -14 -36 -33 -10 -48 -13 -52 -34
-52 -26 0 -26 -26 1 -40 24 -14 30 -9 45 33 7 21 19 33 39 39 32 8 52 -3 66
-39 5 -13 17 -23 28 -23 26 0 35 -39 14 -62 -14 -15 -14 -18 -1 -18 8 0 27
-13 42 -29 27 -28 27 -30 11 -55 -10 -14 -22 -26 -28 -26 -16 0 -57 49 -57 69
0 10 -8 21 -17 25 -10 3 -23 9 -30 12 -19 9 -24 -31 -8 -69 14 -35 14 -38 -6
-58 -25 -25 -38 -21 -64 19 -25 40 -45 48 -52 22 -4 -14 -14 -20 -34 -20 -25
0 -29 4 -29 27 0 14 7 34 16 44 14 16 14 18 -3 28 -44 25 -45 26 -32 54 7 15
15 27 18 27 3 0 14 7 25 15 18 13 18 15 -4 44 -12 17 -25 31 -30 31 -5 0 -12
-20 -16 -45 -3 -25 -11 -48 -18 -52 -11 -7 -16 -9 -48 -11 -24 -3 -23 -35 1
-56 19 -17 19 -18 -1 -52 -18 -30 -25 -34 -63 -34 -50 0 -60 11 -56 60 4 45
15 58 57 66 31 6 33 8 20 26 -8 10 -12 28 -9 39 5 17 -4 23 -24 17 -5 -2 -8
-14 -8 -28 0 -23 -4 -25 -45 -25 -25 0 -54 -5 -65 -12 -18 -10 -18 -15 -7 -33
11 -19 11 -25 -2 -39 -9 -10 -16 -25 -16 -33 0 -13 -10 -16 -48 -14 -26 1 -53
6 -60 10 -18 11 -14 34 8 48 11 7 20 16 20 20 0 4 -9 10 -20 13 -24 8 -27 43
-4 52 9 3 32 -2 51 -11 l36 -17 -6 38 c-4 21 -15 44 -25 53 -24 19 -36 50 -19
50 7 0 1 6 -13 13 -32 16 -37 43 -9 57 18 10 26 8 50 -9 16 -12 30 -17 34 -11
8 13 52 13 60 0 3 -5 20 -10 36 -10 23 0 34 -7 50 -35 12 -19 22 -35 24 -35 2
0 12 15 24 33 l20 32 -37 5 c-31 4 -37 9 -37 30 0 21 -5 26 -32 28 -45 4 -61
27 -38 52 21 24 24 24 49 5z m582 -316 c10 -17 -13 -36 -27 -22 -12 12 -4 33
11 33 5 0 12 -5 16 -11z m183 -208 c11 -7 11 -10 0 -17 -21 -13 -49 -12 -49 2
0 7 6 15 13 17 18 8 21 8 36 -2z m-119 -30 c0 -22 27 -36 44 -22 12 10 63 3
72 -10 7 -12 44 -12 44 0 0 22 31 19 42 -4 6 -14 16 -25 22 -25 28 -1 36 -16
25 -48 -9 -27 -16 -32 -44 -32 -19 0 -37 -5 -40 -10 -4 -6 -29 -8 -63 -4 -47
5 -55 4 -44 -7 18 -19 15 -39 -7 -39 -11 0 -23 -4 -26 -10 -9 -15 -31 -12 -48
5 -11 10 -25 13 -46 9 -32 -7 -81 16 -81 38 0 13 39 48 55 48 6 0 16 5 23 12
9 9 8 15 -3 28 -10 11 -13 28 -8 53 5 35 7 37 44 37 32 0 39 -4 39 -19z
m-1687 -61 c21 -16 30 -18 52 -10 20 7 31 7 41 -1 8 -6 25 -8 38 -5 31 8 44
-11 22 -32 -14 -14 -14 -17 0 -33 19 -21 11 -39 -17 -39 -32 0 -59 -19 -59
-41 0 -11 -8 -22 -17 -26 -10 -3 -26 -13 -35 -21 -16 -13 -20 -13 -36 1 -10
10 -23 17 -29 17 -11 0 -28 -29 -24 -43 4 -20 -22 -47 -46 -47 -15 0 -35 -7
-45 -17 -17 -15 -19 -15 -38 2 -17 15 -24 16 -46 7 -32 -15 -44 -15 -44 1 0 7
10 17 23 22 16 8 21 18 20 40 -3 34 12 55 38 55 30 0 68 22 62 35 -6 18 32 55
57 55 11 0 20 7 20 15 0 8 -9 15 -20 15 -31 0 -37 30 -11 52 30 23 62 23 94
-2z m1073 -131 c20 -19 26 -20 59 -9 61 20 81 -5 40 -50 -16 -18 -17 -23 -5
-30 18 -11 15 -13 -32 -27 -27 -8 -50 -7 -90 2 -53 13 -88 25 -88 30 0 8 32
63 47 82 23 28 41 28 69 2z m-940 -34 c9 -8 12 -20 8 -26 -5 -9 -11 -6 -21 6
-23 33 -14 47 13 20z m44 -42 c0 -5 -5 -15 -10 -23 -8 -12 -10 -11 -10 8 0 12
5 22 10 22 6 0 10 -3 10 -7z m2315 -63 c8 0 18 8 23 17 9 15 12 15 45 -1 20
-9 39 -21 42 -26 3 -6 21 -10 38 -10 18 0 43 -9 57 -20 21 -17 23 -21 10 -30
-8 -5 -25 -10 -37 -10 -12 0 -25 -5 -28 -11 -10 -15 65 -81 95 -85 13 -1 26
-8 29 -15 2 -6 12 -20 22 -30 48 -48 -4 -72 -59 -28 -23 18 -25 18 -63 -1 -49
-25 -57 -25 -64 3 -7 25 -49 49 -73 40 -9 -3 -27 -15 -39 -26 -12 -11 -29 -17
-37 -14 -18 7 -22 37 -6 37 6 0 10 8 10 18 0 10 7 28 16 40 14 20 14 24 -1 39
-11 10 -14 24 -10 40 4 17 0 29 -14 41 -19 16 -25 37 -22 72 1 10 9 7 26 -13
14 -15 32 -27 40 -27z m-1015 4 c0 -9 7 -22 14 -28 18 -13 8 -77 -12 -84 -19
-6 -26 27 -12 54 12 21 11 26 -5 38 -10 7 -15 18 -11 24 11 17 26 15 26 -4z
m114 -2 c5 -9 -35 -101 -45 -102 -19 -1 -24 81 -7 98 14 14 44 16 52 4z
m-1025 -31 c18 -11 5 -31 -20 -31 -12 0 -19 7 -19 20 0 21 16 26 39 11z m134
-21 c22 -27 22 -40 -3 -40 -11 0 -20 5 -20 10 0 6 -6 10 -14 10 -18 0 -29 16
-21 30 10 16 39 11 58 -10z m167 -36 c31 -26 76 -101 66 -111 -2 -3 -15 11
-28 30 -12 20 -36 41 -53 49 -18 8 -31 22 -33 36 -4 29 9 28 48 -4z m-326 -3
c18 26 43 20 55 -13 6 -16 4 -28 -5 -39 -13 -14 -12 -18 1 -29 32 -27 10 -59
-26 -38 -16 10 -23 10 -26 2 -2 -7 -13 -10 -23 -7 -13 4 -20 0 -20 -9 0 -8 -6
-22 -13 -32 -12 -16 -16 -17 -35 -5 -19 12 -24 10 -47 -11 -20 -19 -28 -21
-37 -12 -10 10 -10 17 0 32 19 31 15 40 -18 40 -35 0 -36 4 -12 30 25 27 94
37 111 16 7 -9 17 -13 22 -10 12 7 12 54 0 54 -5 0 -11 11 -13 24 l-5 25 38
-19 38 -20 15 21z m840 -46 c26 -47 14 -55 -18 -12 -29 38 -32 47 -13 47 7 0
21 -16 31 -35z m-107 -11 c10 -14 26 -33 36 -42 25 -23 21 -51 -8 -62 -15 -6
-25 -17 -25 -30 0 -17 -4 -19 -27 -14 -31 8 -54 -15 -46 -46 4 -14 0 -20 -10
-20 -19 0 -38 -32 -29 -47 12 -18 49 -33 82 -33 l31 0 -3 -52 -3 -53 -41 -1
c-22 0 -46 -4 -52 -8 -6 -3 -27 3 -46 15 -29 17 -36 18 -36 6 0 -16 -26 -30
-40 -22 -5 3 -28 1 -52 -4 -48 -11 -57 -7 -60 32 -1 15 -7 27 -13 27 -6 0 -6
3 1 8 23 15 22 40 -2 63 -30 28 -30 32 -1 44 15 7 23 20 25 43 2 18 9 32 17
32 16 0 22 -16 31 -80 l7 -51 56 5 c31 3 60 5 64 5 4 1 3 11 -4 23 -9 16 -7
41 6 112 21 111 26 120 62 121 23 0 29 5 31 28 4 34 26 35 49 1z m-242 -18 c8
-18 21 -36 30 -40 13 -4 15 -19 13 -68 -2 -35 -7 -63 -11 -63 -5 0 -21 34 -37
75 -16 41 -34 83 -40 92 -15 27 -12 38 11 38 13 0 25 -11 34 -34z m299 12 c27
-38 18 -52 -13 -22 -17 15 -28 31 -25 36 9 14 22 9 38 -14z m792 -13 c0 -39
-21 -54 -45 -31 -13 14 -12 18 9 41 31 33 36 32 36 -10z m-324 -21 c26 -9 31
-39 14 -73 -18 -35 -19 -41 -7 -41 5 0 13 9 16 20 9 28 47 35 84 16 47 -25 39
-86 -12 -86 -17 0 -17 -2 -3 -22 9 -12 16 -35 16 -50 0 -34 -26 -38 -61 -9
-21 17 -25 17 -47 3 -33 -22 -51 -3 -35 38 11 28 10 30 -13 30 -13 0 -33 5
-44 10 -11 6 -29 15 -40 20 -11 6 -26 10 -34 10 -23 0 -29 19 -16 51 16 37 58
61 83 48 13 -8 17 -6 17 6 0 9 5 25 10 35 8 15 15 17 33 9 12 -5 30 -12 39
-15z m1304 4 c3 -22 -3 -23 -22 -4 -19 19 -18 28 3 24 9 -2 17 -11 19 -20z
m-2841 -18 c0 -9 -8 -14 -19 -13 -11 1 -31 -7 -44 -18 -31 -24 -50 -14 -25 13
33 37 88 48 88 18z m-198 -106 c37 -19 52 -31 49 -41 -3 -8 -1 -23 4 -34 9
-16 6 -24 -17 -44 -15 -13 -34 -25 -41 -25 -18 0 -27 29 -13 43 30 30 -3 64
-55 56 -24 -4 -44 8 -44 26 0 11 36 38 59 44 2 1 28 -11 58 -25z m-415 -46
c68 -64 139 -103 166 -93 21 8 41 -12 35 -35 -3 -10 -18 -24 -34 -30 -32 -14
-37 -25 -14 -34 21 -8 19 -36 -3 -36 -10 0 -27 -7 -39 -15 -19 -13 -23 -13
-38 1 -14 14 -18 15 -39 0 -21 -13 -26 -13 -36 -1 -7 8 -16 12 -20 10 -5 -3 2
-17 16 -32 32 -34 27 -55 -13 -64 -18 -3 -40 -12 -48 -19 -12 -10 -15 -10 -15
1 0 8 -4 21 -10 29 -7 12 -12 12 -35 0 -22 -12 -28 -12 -41 2 -13 13 -14 20
-4 38 10 18 9 25 -9 41 -41 39 -15 62 64 57 54 -3 55 -2 55 24 0 34 16 44 46
27 30 -16 38 -8 29 30 -4 21 -15 32 -37 40 -17 6 -33 9 -36 6 -7 -6 -42 14
-42 25 0 33 74 53 102 28z m1251 -71 c20 -18 37 -35 37 -38 0 -13 -77 -59 -97
-59 -31 0 -85 55 -81 82 2 13 8 23 15 23 7 0 18 6 25 13 22 22 63 13 101 -21z
m1322 -18 c10 -18 20 -26 30 -23 8 4 15 1 15 -4 0 -24 -108 -165 -120 -157 -4
2 -9 40 -12 84 -3 49 -11 89 -21 104 -9 14 -14 26 -12 28 2 2 26 2 54 1 45 -4
53 -8 66 -33z m-1561 -9 c39 -27 41 -31 51 -102 8 -58 -5 -62 -36 -12 -31 51
-97 125 -103 116 -2 -4 16 -34 40 -66 24 -33 44 -63 44 -68 0 -13 -12 -9 -32
9 -16 15 -21 15 -28 3 -5 -8 -12 -11 -17 -7 -4 5 -1 12 6 16 11 7 5 21 -23 65
-21 30 -35 59 -33 63 11 18 95 7 131 -17z m-311 -18 c30 -28 35 -57 12 -66
-16 -6 -21 -46 -5 -46 5 0 7 -7 4 -15 -8 -20 -16 -19 -39 3 -18 17 -20 17 -38
-1 -18 -18 -18 -20 -2 -37 19 -21 14 -52 -7 -49 -7 1 -21 -1 -30 -5 -25 -11
-48 0 -48 23 0 34 -18 33 -25 -1 -3 -18 -11 -43 -17 -55 -8 -17 -8 -26 2 -38
19 -22 7 -28 -35 -16 -26 7 -44 7 -62 -2 -21 -9 -27 -8 -38 6 -7 10 -26 17
-44 17 -34 0 -42 19 -16 40 12 10 12 15 0 34 -18 27 -11 36 29 36 42 0 54 10
58 45 4 36 31 45 59 19 24 -21 38 -11 15 11 -27 27 -19 51 25 74 l40 21 18
-21 18 -22 22 36 c33 53 53 55 104 9z m2288 -12 c10 -6 19 -18 19 -27 0 -12 7
-14 29 -10 22 5 34 0 51 -18 12 -13 32 -26 45 -29 25 -6 55 -56 55 -91 0 -12
9 -30 20 -40 22 -20 26 -40 10 -50 -6 -3 -42 -3 -81 1 -61 6 -72 10 -81 30 -7
15 -20 24 -33 24 -26 0 -50 24 -40 40 4 6 -5 20 -19 31 -33 26 -34 49 -1 49
31 0 31 12 4 49 -12 16 -18 34 -15 40 9 14 12 14 37 1z m-271 -20 c22 -14 2
-41 -41 -55 -30 -10 -34 -16 -34 -45 0 -21 -6 -35 -15 -38 -27 -9 -61 -54 -58
-76 2 -15 11 -22 31 -24 15 -2 27 -7 27 -11 0 -15 -89 -83 -141 -107 -45 -22
-79 -30 -79 -20 0 3 27 55 61 117 84 157 153 252 187 260 40 10 46 10 62 -1z
m-1562 -54 c3 -13 -1 -17 -14 -14 -11 2 -20 11 -22 22 -3 13 1 17 14 14 11 -2
20 -11 22 -22z m1302 -55 c0 -79 -19 -122 -103 -232 -72 -95 -82 -92 -73 23 3
50 6 109 6 130 0 31 4 41 20 45 10 3 28 21 40 40 11 19 25 31 30 28 17 -10 49
5 55 26 12 38 25 7 25 -60z m-550 26 c0 -17 -60 -88 -70 -82 -10 6 -19 52 -11
62 20 28 81 43 81 20z m-210 -17 c0 -5 -7 -10 -15 -10 -8 0 -15 5 -15 10 0 6
7 10 15 10 8 0 15 -4 15 -10z m-507 -10 c6 0 4 -7 -5 -16 -18 -18 -38 -11 -38
13 0 10 6 13 16 9 9 -3 21 -6 27 -6z m601 -6 c10 -27 7 -79 -6 -96 -15 -18
-86 -53 -94 -45 -3 2 9 15 25 27 34 23 40 45 16 54 -15 5 -21 57 -8 69 13 13
61 7 67 -9z m356 -24 c41 -80 65 -232 42 -268 -12 -18 -35 -7 -61 28 -14 19
-31 30 -46 30 -18 0 -25 5 -25 19 0 25 -23 43 -45 35 -11 -5 -22 -1 -29 8 -22
30 -126 7 -126 -28 0 -18 -31 -15 -37 2 -5 15 167 191 198 203 13 5 43 10 66
10 40 1 44 -2 63 -39z m73 24 c45 -15 47 -18 47 -52 0 -54 -11 -112 -21 -112
-5 0 -9 6 -9 14 0 7 -16 45 -35 82 -32 64 -40 84 -32 84 2 0 24 -7 50 -16z
m-1147 -74 c28 -59 39 -140 20 -140 -21 0 -86 94 -86 123 0 14 -4 29 -10 32
-15 10 -12 23 8 28 34 9 47 1 68 -43z m118 -59 c16 -17 27 -19 87 -14 45 4 73
2 83 -6 18 -15 39 -185 31 -258 -13 -117 -21 -136 -42 -90 -6 12 -40 62 -76
110 -66 88 -101 162 -113 237 -7 44 3 51 30 21z m330 -4 c15 -11 17 -19 9 -43
-13 -39 -47 -40 -51 -1 -6 53 9 68 42 44z m96 -7 c0 -11 -42 -52 -47 -46 -2 2
-1 15 3 30 6 25 44 39 44 16z m125 -11 c4 -5 1 -18 -7 -27 -35 -41 -60 -97
-89 -198 -31 -109 -72 -197 -145 -309 -48 -75 -54 -58 -24 75 11 52 20 126 20
165 0 63 4 77 40 140 69 123 99 148 192 164 4 0 10 -4 13 -10z m-999 -25 c10
-38 -14 -77 -43 -69 -12 3 -31 0 -42 -6 -26 -17 -48 -5 -56 30 -9 42 -1 51 50
51 24 0 47 5 50 10 12 19 35 10 41 -16z m329 -128 c127 -128 188 -203 227
-276 29 -56 31 -149 5 -234 l-18 -58 -82 83 c-45 46 -99 95 -120 109 -20 14
-37 29 -37 33 0 5 29 5 65 2 l65 -7 11 31 c6 17 15 31 20 31 19 0 8 47 -16 70
-14 13 -25 32 -25 42 0 16 -10 22 -31 20 -4 -1 -10 10 -13 23 -5 21 -12 25
-39 23 -28 -3 -32 0 -35 25 -3 21 -12 32 -35 42 -27 11 -32 19 -32 47 0 31 -2
33 -40 36 -22 2 -45 8 -52 13 -8 7 -19 5 -36 -6 -29 -19 -43 -7 -53 43 -6 29
-3 33 26 46 62 26 107 0 245 -138z m1611 129 c-11 -8 -22 -12 -25 -9 -6 6 19
24 34 24 6 -1 1 -7 -9 -15z m-2118 -61 c2 -31 -2 -56 -12 -69 -13 -19 -16 -17
-40 39 -27 61 -26 71 9 79 34 8 40 2 43 -49z m2281 40 c13 -11 -17 -19 -66
-17 -62 3 -82 11 -62 24 13 8 118 2 128 -7z m-2505 -23 c10 -11 13 -22 8 -25
-15 -9 -72 14 -72 30 0 21 44 17 64 -5z m127 -7 c5 -15 7 -29 4 -32 -7 -8 -45
29 -45 45 0 23 30 14 41 -13z m-254 -17 c7 -5 25 -10 40 -12 138 -13 157 -21
200 -88 21 -34 24 -65 4 -52 -5 2 -35 7 -67 11 -60 6 -97 23 -149 69 -17 14
-45 35 -63 46 -25 16 -30 24 -22 34 11 14 34 11 57 -8z m2608 3 c3 -5 15 -10
26 -10 55 0 -4 -41 -130 -89 -86 -33 -111 -34 -111 -5 0 13 -6 15 -32 9 -60
-13 -73 -11 -73 10 0 26 49 50 145 69 141 28 166 30 175 16z m80 -103 c-13
-31 -30 -77 -36 -102 -11 -43 -16 -47 -80 -80 -60 -30 -72 -33 -99 -24 -16 6
-30 17 -30 24 0 8 -9 17 -20 20 -21 7 -27 30 -10 40 6 4 8 15 5 26 -4 11 -2
19 5 19 19 0 174 78 225 113 28 19 53 32 58 28 4 -4 -4 -33 -18 -64z m-2717
24 c18 -12 32 -26 32 -31 0 -4 -30 0 -67 10 -76 20 -123 37 -123 44 0 3 28 4
63 3 47 -2 71 -9 95 -26z m2812 4 c17 -9 30 -20 30 -25 0 -6 8 -10 18 -10 9 0
25 -7 36 -15 16 -12 23 -12 48 1 31 16 88 11 88 -7 0 -6 -4 -8 -9 -5 -5 3 -33
-5 -63 -18 -63 -28 -250 -88 -255 -82 -15 14 53 176 73 176 3 0 18 -7 34 -15z
m-2345 -22 c11 -3 31 -10 43 -16 20 -9 25 -8 33 6 14 24 34 21 47 -8 7 -14 20
-25 31 -25 10 0 25 -7 32 -16 12 -14 10 -19 -15 -39 -16 -13 -26 -27 -23 -32
4 -6 1 -18 -6 -27 -12 -16 -14 -16 -39 3 -33 26 -63 28 -53 4 11 -31 10 -38
-5 -34 -22 5 -32 4 -66 -10 -17 -7 -40 -9 -50 -5 -17 7 -16 10 16 37 28 24 31
29 15 29 -11 0 -37 -5 -58 -11 -22 -6 -41 -8 -45 -5 -7 8 38 56 54 56 6 0 17
7 24 15 10 12 10 18 0 30 -19 23 3 70 28 60 9 -4 26 -9 37 -12z m-496 -34 c41
-11 84 -19 95 -19 22 -1 76 -42 76 -59 0 -5 -12 -19 -27 -31 l-27 -21 -16 22
c-12 15 -23 19 -37 15 -13 -4 -30 3 -53 24 -18 16 -39 30 -46 30 -19 0 -35
-27 -41 -70 -6 -44 -17 -49 -48 -22 -39 33 -116 135 -108 143 10 10 88 16 128
10 17 -2 63 -12 104 -22z m-390 -20 c-15 -21 -25 -27 -32 -20 -12 12 18 51 40
51 11 0 9 -8 -8 -31z m147 -4 c31 -41 28 -50 -15 -40 -33 7 -56 37 -47 61 9
24 34 16 62 -21z m-302 0 c36 -15 45 -28 27 -40 -13 -7 -82 35 -75 46 7 11 5
12 48 -6z m2296 -5 c14 -25 -9 -61 -72 -112 -54 -43 -167 -112 -174 -105 -3 3
0 16 7 29 7 12 25 59 39 103 l28 80 58 11 c87 17 102 16 114 -6z m232 -9 c-4
-38 -21 -53 -54 -46 -22 5 -36 0 -65 -24 -21 -17 -47 -31 -59 -31 -11 0 -35
-5 -53 -11 -18 -6 -34 -9 -37 -6 -3 3 17 33 45 68 28 35 51 66 51 69 0 4 39 6
88 6 86 -1 87 -1 84 -25z m323 9 c10 -12 20 -31 22 -43 9 -58 9 -93 1 -104
-11 -14 -32 -7 -23 8 4 5 1 9 -4 9 -6 0 -11 -4 -11 -10 0 -15 -36 -12 -50 5
-7 8 -10 24 -7 35 5 20 -7 28 -18 11 -6 -11 -75 -3 -89 9 -4 5 4 25 20 45 25
33 32 36 62 32 37 -7 65 0 56 14 -11 18 23 8 41 -11z m795 -5 c18 -22 -1 -39
-34 -31 -42 10 -33 36 15 45 4 0 12 -6 19 -14z m166 -10 c29 -9 56 -25 67 -40
21 -30 7 -34 -40 -11 -15 7 -41 20 -57 27 -28 14 -47 39 -29 39 5 0 32 -7 59
-15z m-2934 -11 c16 -10 8 -34 -17 -50 -25 -17 -27 -16 -60 16 -19 19 -35 38
-35 43 0 9 95 1 112 -9z m2078 -1 c0 -10 -52 -35 -58 -28 -2 2 -2 11 1 20 6
15 57 22 57 8z m500 -41 c0 -4 -6 -14 -12 -20 -10 -10 -10 -15 2 -22 20 -13 8
-21 -46 -31 -26 -5 -55 -16 -64 -24 -9 -8 -27 -15 -39 -15 -25 0 -61 17 -61
29 0 9 73 43 150 71 62 22 70 23 70 12z m-3041 -65 c1 -5 -5 -14 -12 -21 -10
-11 -15 -11 -25 0 -6 7 -19 17 -28 22 -12 7 -15 17 -10 36 l7 27 34 -28 c18
-15 34 -32 34 -36z m1961 -29 c12 -13 24 -36 27 -51 3 -16 12 -31 19 -34 36
-14 17 -41 -146 -209 -83 -86 -116 -128 -144 -185 -45 -93 -72 -203 -85 -346
-5 -61 -12 -117 -16 -122 -10 -16 -25 -13 -32 7 -3 9 -26 52 -51 95 -24 42
-60 121 -79 175 -30 80 -36 111 -37 182 -1 81 1 89 39 160 56 106 193 242 295
292 70 35 130 55 172 57 10 1 27 -9 38 -21z m-2366 -29 c-8 -13 -24 -1 -24 18
0 13 3 13 15 3 8 -7 12 -16 9 -21z m-47 -9 c-1 -11 -4 -20 -8 -20 -10 0 -20
30 -13 41 9 15 23 1 21 -21z m603 -10 c11 -11 26 -20 34 -20 27 0 23 -57 -7
-97 -13 -18 -45 1 -49 29 -2 19 -10 24 -45 26 -45 3 -60 26 -25 39 9 4 28 15
41 25 29 22 27 22 51 -2z m2657 12 c16 -10 4 -27 -24 -36 -20 -6 -23 -4 -23
18 0 26 21 34 47 18z m-1878 -31 c12 -8 7 -21 -29 -72 -53 -76 -69 -118 -70
-187 0 -67 -9 -65 -78 19 -56 69 -68 95 -58 134 5 20 12 24 40 23 19 -1 46 6
61 16 14 9 30 14 35 11 10 -6 59 15 61 27 1 4 3 13 4 18 1 6 3 12 4 15 2 8 14
6 30 -4z m-1244 -11 c3 -5 -7 -16 -23 -24 -32 -16 -39 -46 -11 -46 27 0 31
-15 10 -35 -13 -11 -32 -16 -58 -13 l-38 3 3 -37 c3 -35 1 -38 -22 -38 -19 0
-26 -5 -26 -19 0 -11 5 -23 10 -26 21 -13 10 -43 -19 -53 -23 -8 -28 -15 -24
-30 7 -28 -31 -49 -52 -28 -8 8 -15 19 -15 25 0 5 -11 22 -26 36 -18 18 -32
23 -48 19 -34 -8 -41 11 -21 63 16 41 20 45 46 39 22 -4 29 -1 34 15 9 29 50
46 70 29 12 -10 21 -9 50 4 19 9 35 21 35 26 0 4 12 13 28 18 17 7 21 11 10
11 -40 2 -7 45 47 63 29 9 33 9 40 -2z m3231 -6 c-3 -9 -6 -20 -6 -25 0 -5 -9
-9 -20 -9 -13 0 -20 7 -20 18 0 24 9 32 33 32 13 0 17 -5 13 -16z m-696 -14
c0 -5 9 -10 20 -10 11 0 20 -3 20 -7 0 -14 -66 -92 -75 -89 -10 3 -9 64 1 99
6 18 34 24 34 7z m1225 -4 c40 -1 55 -12 55 -42 0 -19 5 -24 25 -24 13 0 29
-8 34 -19 7 -13 18 -17 36 -14 37 8 55 -12 48 -50 -9 -47 -28 -62 -59 -49 -26
13 -33 2 -10 -17 8 -7 14 -20 14 -29 0 -9 0 -21 2 -27 8 -32 -1 -37 -25 -15
-20 18 -28 21 -37 12 -21 -21 -45 -13 -58 19 -9 22 -18 29 -31 26 -10 -3 -24
1 -30 9 -9 11 -8 19 6 34 21 23 14 36 -25 45 -17 4 -30 12 -30 20 0 15 -53 27
-87 19 -19 -5 -25 -2 -30 14 -3 12 -14 22 -26 24 -51 7 -19 58 44 69 24 4 69
5 99 2 30 -3 69 -6 85 -7z m-815 -6 c5 0 21 -12 35 -27 22 -25 27 -26 46 -15
29 18 59 6 59 -24 0 -14 7 -27 15 -30 23 -9 18 -21 -20 -60 -25 -24 -34 -41
-30 -54 8 -27 -8 -32 -49 -15 -19 8 -45 15 -56 15 -27 0 -130 76 -130 95 0 9
-5 24 -12 35 -17 26 15 64 43 50 27 -15 39 -12 39 9 0 21 17 32 38 25 8 -2 18
-4 22 -4z m-1559 -79 c42 -43 97 -106 122 -139 l44 -60 6 -128 c6 -133 25
-216 72 -319 22 -49 86 -217 100 -262 5 -17 2 -23 -9 -23 -9 0 -47 63 -102
172 -137 268 -203 357 -342 460 -68 51 -92 90 -92 150 0 80 70 228 108 228 8
0 50 -35 93 -79z m1049 55 c0 -15 -20 -66 -58 -146 -19 -41 -61 -90 -165 -193
-76 -76 -141 -136 -144 -134 -8 8 18 91 40 126 11 19 79 96 150 170 71 75 135
148 143 163 15 30 34 37 34 14z m190 -61 c-7 -8 -16 -15 -21 -15 -14 0 -11 38
4 43 20 7 31 -11 17 -28z m-2310 -25 c0 -21 -54 -55 -70 -45 -6 3 -10 17 -10
30 0 19 7 26 33 33 38 11 47 7 47 -18z m540 20 c0 -5 -7 -10 -15 -10 -8 0 -15
5 -15 10 0 6 7 10 15 10 8 0 15 -4 15 -10z m2467 -6 c3 -8 -2 -23 -11 -32 -15
-15 -17 -15 -32 0 -21 21 -11 48 16 48 11 0 23 -7 27 -16z m-3778 -15 c-17
-14 -20 -22 -11 -25 15 -7 16 -24 2 -24 -6 0 -14 10 -19 23 -7 17 -4 25 13 34
33 19 41 15 15 -8z m1298 -71 c32 -12 63 -28 70 -36 6 -8 17 -11 23 -7 7 5 59
-41 134 -116 67 -68 158 -158 203 -201 64 -61 89 -93 125 -165 53 -104 93
-202 85 -209 -3 -3 -26 15 -51 40 -50 49 -150 116 -276 185 -100 55 -187 133
-225 202 -25 46 -29 64 -28 125 0 39 6 81 12 92 7 14 8 23 1 27 -14 9 -29 -37
-37 -106 -3 -33 -8 -59 -11 -59 -2 0 -30 20 -61 45 -31 25 -65 52 -76 60 -13
9 -16 17 -10 22 6 5 18 20 27 34 15 23 15 29 3 45 -9 13 -10 23 -3 31 14 18
27 16 95 -9z m1743 1 c0 -14 11 -25 35 -35 20 -8 33 -19 30 -23 -3 -5 -29 -15
-57 -21 -29 -7 -77 -22 -106 -32 -29 -11 -56 -18 -58 -15 -8 8 127 147 142
147 8 0 14 -9 14 -21z m644 -18 c14 -26 14 -30 -5 -47 -18 -16 -21 -16 -36 -1
-14 13 -14 20 -3 46 16 39 25 39 44 2z m-2774 -21 c20 -15 23 -21 13 -31 -7
-7 -13 -23 -13 -36 0 -17 8 -24 32 -31 30 -8 54 -42 29 -42 -34 0 -201 98
-201 118 0 7 78 37 105 40 6 1 21 -7 35 -18z m2238 -87 c3 -19 6 -21 28 -11
40 19 38 3 -11 -64 -26 -34 -56 -81 -67 -103 -49 -95 -102 -138 -336 -270 -56
-31 -125 -78 -153 -102 -27 -25 -52 -43 -55 -41 -3 3 9 50 26 104 97 309 170
388 438 480 110 37 126 38 130 7z m413 -4 c14 -7 24 -7 32 0 8 6 18 6 27 1 10
-6 5 -13 -21 -29 -49 -30 -69 -28 -69 9 0 33 2 35 31 19z m-2767 -24 c82 -25
216 -90 216 -104 0 -5 -55 -11 -122 -14 -68 -3 -139 -10 -158 -16 -111 -31
-177 -34 -151 -8 19 19 12 42 -19 72 -34 33 -39 50 -11 42 10 -2 26 0 35 5 10
6 28 5 51 -3 38 -14 65 -1 65 32 0 24 -2 24 94 -6z m410 -14 c28 -21 70 -57
93 -78 40 -40 79 -100 70 -110 -3 -2 -33 10 -67 27 -34 17 -96 44 -138 59 -87
32 -172 72 -172 80 1 16 60 46 100 52 25 3 49 7 54 8 5 0 32 -16 60 -38z
m2156 8 c0 -22 5 -32 19 -36 24 -6 34 -28 18 -41 -7 -5 -50 -19 -97 -31 -47
-12 -102 -33 -122 -47 -21 -13 -40 -24 -43 -24 -32 0 78 173 113 178 12 2 35
10 50 18 45 23 62 18 62 -17z m427 1 c30 -24 62 -26 89 -5 10 8 24 15 30 15
17 0 25 -73 13 -110 -11 -29 -14 -31 -48 -27 -20 2 -101 12 -181 22 -80 9
-149 21 -154 25 -10 10 57 46 144 76 81 28 77 28 107 4z m433 -115 c17 -35 19
-48 10 -65 -6 -11 -15 -18 -20 -15 -12 7 -30 72 -30 108 0 37 13 28 40 -28z
m-772 -12 c29 -17 31 -17 51 1 20 18 25 18 123 3 57 -9 129 -19 161 -22 40 -5
57 -11 57 -21 0 -20 -27 -29 -45 -14 -24 20 -59 8 -75 -27 -8 -18 -22 -33 -29
-33 -21 0 -91 -50 -91 -65 0 -7 17 -24 38 -39 28 -19 48 -25 76 -23 24 1 41
-3 43 -10 11 -30 -194 1 -422 63 -28 7 -87 16 -133 20 -51 4 -82 11 -82 18 0
18 70 82 117 106 34 17 148 56 175 59 3 1 20 -7 36 -16z m-2231 -45 c64 -27
203 -115 203 -128 0 -4 -35 -10 -77 -13 -57 -3 -119 -19 -232 -57 -158 -53
-177 -55 -220 -22 -20 17 -22 21 -10 40 25 40 -11 80 -93 106 -10 3 -18 14
-18 24 0 28 -25 44 -70 46 -55 1 -50 13 8 21 26 3 54 8 62 10 8 2 98 3 200 2
176 -2 188 -4 247 -29z m2980 -68 c-4 -15 0 -16 30 -7 25 8 37 7 46 -2 9 -10
9 -11 -4 -6 -12 5 -18 -1 -22 -23 -7 -34 -45 -52 -109 -52 -25 0 -41 -5 -44
-15 -9 -22 -31 -18 -50 9 -8 14 -27 26 -41 28 -30 3 -53 32 -38 47 6 5 33 15
60 22 28 6 59 15 70 20 56 23 111 12 102 -21z m-3337 -165 c17 -20 13 -23 -40
-27 -52 -4 -61 12 -16 28 43 16 42 16 56 -1z m-140 -29 c11 -14 8 -16 -24 -16
-36 0 -41 5 -30 34 7 17 31 9 54 -18z m320 -14 c0 -13 -41 -48 -77 -66 -18 -9
-33 -23 -33 -30 0 -7 -6 -19 -14 -25 -15 -13 -27 -7 -133 55 -39 23 -55 44
-35 44 69 2 223 15 242 21 34 10 50 10 50 1z m-226 -118 c10 -25 7 -34 -9 -34
-8 0 -24 -5 -35 -12 -25 -16 -41 -1 -17 16 9 7 17 21 17 30 0 21 36 21 44 0z
m-37 -111 c-17 -18 -22 -8 -11 22 5 12 10 13 17 6 8 -8 6 -16 -6 -28z m1075
-1329 c4 -3 -1 -25 -9 -50 l-15 -44 -650 0 -650 0 -54 42 c-30 24 -54 46 -54
50 0 9 1424 11 1432 2z m2206 -3 c-1 -5 -25 -27 -53 -50 l-50 -41 -676 0 -677
0 -16 47 c-9 26 -16 48 -16 50 0 2 336 3 746 3 438 0 744 -4 742 -9z m-2367
-308 c-18 -34 -126 -133 -200 -183 l-74 -51 -66 22 c-149 49 -335 129 -466
201 l-50 28 433 0 c409 0 432 -1 423 -17z m1899 -14 c-117 -65 -345 -162 -480
-204 l-56 -17 -60 30 c-83 42 -162 104 -238 190 l-30 32 460 0 459 0 -55 -31z"/>
<path d="M2230 5183 c14 -3 29 -10 33 -17 6 -7 7 -6 4 4 -2 8 -16 16 -33 17
-25 1 -26 0 -4 -4z"/>
<path d="M1580 4530 c-14 -11 -20 -20 -14 -20 6 0 19 9 29 20 23 25 17 25 -15
0z"/>
<path d="M1493 4473 c9 -2 25 -2 35 0 9 3 1 5 -18 5 -19 0 -27 -2 -17 -5z"/>
<path d="M1177 3893 c-11 -10 -8 -28 8 -49 14 -18 14 -17 5 10 -8 22 -8 31 2
38 7 4 8 8 2 8 -6 0 -14 -3 -17 -7z"/>
<path d="M5448 3881 c23 -20 29 -46 12 -56 -13 -8 -13 -25 0 -25 15 0 32 39
25 59 -3 10 -18 23 -33 30 l-27 11 23 -19z"/>
<path d="M5417 3864 c-9 -10 2 -24 18 -24 9 0 12 6 9 15 -6 16 -17 19 -27 9z"/>
<path d="M1193 3239 c-18 -5 -38 -19 -44 -30 -9 -18 -7 -25 10 -42 11 -12 23
-18 27 -14 3 3 -1 13 -10 22 -23 24 -21 29 27 52 45 23 42 27 -10 12z"/>
<path d="M4670 2380 l-24 -18 24 -20 c23 -19 23 -20 7 -55 -9 -19 -17 -40 -17
-46 0 -6 -4 -11 -10 -11 -12 0 -24 -45 -15 -59 4 -7 18 -6 42 4 19 8 37 15 39
15 2 0 4 -17 4 -39 0 -46 22 -70 45 -51 8 7 15 18 15 24 0 6 4 17 9 25 8 12
12 12 26 -2 20 -20 41 -22 47 -4 3 6 2 37 -2 67 -5 39 -9 49 -14 35 -10 -27
-79 -29 -84 -2 -2 10 2 24 8 32 15 18 6 45 -14 45 -7 0 -16 9 -19 21 -3 12
-10 18 -15 15 -5 -3 -16 2 -23 11 -12 14 -11 15 9 9 26 -9 29 -1 4 13 -13 7
-24 4 -42 -9z"/>
</g>
</svg>
