<?xml version="1.0" encoding="UTF-8" standalone="no"?>
<svg
   version="1.0"
   width="948.771739pt"
   height="107.977031pt"
   viewBox="0 0 948.771739 107.977031"
   preserveAspectRatio="xMidYMid meet"
   id="svg10"
   sodipodi:docname="2logo.svg"
   inkscape:version="1.4.2 (f4327f4, 2025-05-13)"
   xmlns:inkscape="http://www.inkscape.org/namespaces/inkscape"
   xmlns:sodipodi="http://sodipodi.sourceforge.net/DTD/sodipodi-0.dtd"
   xmlns="http://www.w3.org/2000/svg"
   xmlns:svg="http://www.w3.org/2000/svg">
  <defs
     id="defs10" />
  <sodipodi:namedview
     id="namedview10"
     pagecolor="#ffffff"
     bordercolor="#000000"
     borderopacity="0.25"
     inkscape:showpageshadow="2"
     inkscape:pageopacity="0.0"
     inkscape:pagecheckerboard="0"
     inkscape:deskcolor="#d1d1d1"
     inkscape:document-units="pt"
     inkscape:zoom="1.4015489"
     inkscape:cx="432.73553"
     inkscape:cy="-39.599046"
     inkscape:window-width="1920"
     inkscape:window-height="991"
     inkscape:window-x="-9"
     inkscape:window-y="-9"
     inkscape:window-maximized="1"
     inkscape:current-layer="svg10" />
  <metadata
     id="metadata1">
Created by potrace 1.16, written by Peter Selinger 2001-2019
</metadata>
  <g
     transform="matrix(0.1,0,0,-0.1,-18.535123,122.47549)"
     fill="#000000"
     stroke="none"
     id="g10">
    <path
       d="M 1186,1194 C 1015,1153 862,1010 810,842 782,754 783,606 810,517 848,394 962,260 1073,206 c 208,-101 441,-66 606,90 113,106 161,218 161,379 0,162 -45,272 -154,380 -135,133 -317,183 -500,139 z m 278,-213 c 74,-36 119,-82 154,-159 65,-143 21,-325 -101,-413 -70,-51 -105,-62 -197,-63 -77,-1 -92,2 -152,32 -129,63 -198,186 -185,329 23,247 261,382 481,274 z"
       id="path1" />
    <path
       d="m 2214,1200 c -104,-32 -186,-136 -187,-238 -1,-105 48,-178 210,-312 132,-110 172,-151 183,-186 14,-42 -1,-79 -42,-104 -76,-46 -153,-13 -228,98 l -15,22 -77,-50 c -43,-27 -78,-53 -78,-56 0,-16 61,-101 97,-136 135,-131 393,-110 492,39 66,99 63,220 -5,321 -20,28 -88,95 -150,147 -173,146 -194,167 -194,203 0,36 39,72 77,72 39,0 91,-29 126,-71 l 33,-38 73,67 74,67 -61,56 c -81,76 -137,101 -226,105 -39,2 -85,-1 -102,-6 z"
       id="path2" />
    <path
       d="m 6345,1200 c -277,-59 -453,-289 -431,-561 12,-145 53,-237 150,-335 115,-115 244,-161 426,-151 146,8 276,65 370,162 l 34,35 -66,67 -67,67 -38,-35 c -151,-136 -366,-146 -503,-22 -72,65 -102,128 -108,228 -5,95 7,147 51,211 121,180 385,203 556,49 l 41,-37 58,51 c 92,79 90,71 26,130 -60,55 -123,91 -214,123 -62,22 -221,32 -285,18 z"
       id="path3" />
    <path
       d="m 7466,1194 c -262,-63 -439,-326 -398,-591 34,-216 204,-399 410,-442 183,-38 357,14 487,144 105,105 155,224 155,370 0,151 -51,274 -156,379 -134,133 -315,184 -498,140 z m 256,-202 c 61,-26 141,-102 168,-156 46,-96 46,-226 0,-316 -28,-56 -96,-119 -158,-148 -48,-23 -70,-27 -142,-27 -71,1 -94,5 -141,28 -74,36 -140,107 -169,183 -29,76 -25,193 9,269 36,83 115,152 204,181 58,19 170,12 229,-14 z"
       id="path4" />
    <path
       d="m 8499,1197 c -113,-32 -189,-128 -189,-239 0,-106 56,-181 260,-353 143,-122 166,-166 112,-226 -21,-24 -38,-32 -75,-36 -73,-9 -121,20 -178,107 l -16,24 -76,-48 c -43,-26 -77,-50 -77,-53 0,-2 16,-29 36,-58 74,-113 153,-157 279,-158 90,-1 140,13 203,55 83,57 128,182 103,286 -20,77 -71,143 -198,250 -169,142 -193,168 -193,202 0,55 83,89 143,59 12,-6 41,-29 64,-52 l 42,-40 66,64 67,64 -63,59 c -34,32 -81,67 -105,77 -56,25 -147,32 -205,16 z"
       id="path5"
       style="fill:#9d31d0;fill-opacity:1" />
    <path
       d="m 9279,1197 c -111,-32 -189,-128 -189,-235 0,-101 49,-178 187,-294 223,-187 245,-222 185,-289 -23,-25 -38,-33 -78,-36 -72,-7 -132,31 -180,112 -9,17 -15,15 -82,-25 -40,-23 -75,-46 -78,-51 -8,-13 58,-110 101,-148 63,-55 118,-74 210,-75 90,0 141,14 203,56 83,57 128,182 103,286 -19,75 -74,144 -204,254 -166,141 -187,163 -187,198 0,55 83,90 143,59 12,-6 41,-29 63,-51 l 41,-40 68,63 67,63 -62,60 c -35,32 -82,67 -106,77 -56,25 -147,32 -205,16 z"
       id="path6"
       style="fill:#9d31d0;fill-opacity:1" />
    <path
       d="M 180,680 V 170 h 235 235 v 95 95 H 510 370 v 415 415 h -95 -95 z"
       id="path7" />
    <path
       d="m 3170,1095 v -95 h 90 90 V 585 170 h 100 100 v 415 415 h 95 95 v 95 95 h -285 -285 z"
       id="path8" />
    <path
       d="M 5090,680 V 170 h 95 95 v 215 c 0,118 4,215 9,215 4,0 59,-97 122,-215 l 114,-215 h 108 108 l -55,103 c -30,56 -84,156 -120,222 -56,104 -63,121 -49,130 85,54 111,77 138,119 28,46 30,56 30,150 0,113 -15,154 -77,212 -71,68 -143,84 -365,84 h -153 z m 341,310 c 45,-13 69,-47 69,-97 0,-74 -46,-103 -162,-103 h -58 v 105 105 h 58 c 31,0 73,-5 93,-10 z"
       id="path9" />
    <path
       d="m 4249,1143 c -5,-16 -56,-148 -111,-295 L 4036,580 h -48 c -26,0 -48,-4 -48,-10 0,-5 14,-25 31,-45 l 31,-35 -65,-170 -64,-170 h 101 102 l 34,90 c 18,50 36,93 40,95 3,2 53,-43 111,-101 l 104,-104 106,106 106,105 35,-93 35,-93 102,-3 c 55,-1 101,0 101,3 0,3 -27,75 -60,161 -33,85 -60,160 -60,166 0,6 14,26 30,45 17,18 30,38 30,43 0,5 -24,10 -52,12 l -53,3 -114,293 -114,292 h -99 c -98,0 -99,0 -109,-27 z m 264,-644 c 1,-4 -34,-44 -77,-89 l -79,-81 -74,73 c -40,40 -73,79 -73,88 0,14 133,371 147,393 4,7 142,-331 156,-384 z"
       id="path10" />
  </g>
</svg>
